<svg width="686" height="370" viewBox="0 0 686 370" fill="none" xmlns="http://www.w3.org/2000/svg">
<g clip-path="url(#clip0)">
<path opacity="0.1" d="M686 237.488C686.008 247.539 684.626 257.543 681.892 267.216C679.25 276.541 675.363 285.468 670.337 293.756C670.337 323.784 650.057 349.737 620.62 362.084C608.319 367.191 595.124 369.799 581.805 369.756H130.226C106.09 369.756 83.723 363.247 65.3797 352.158C60.1299 349 55.1499 345.413 50.4904 341.436C30.1022 323.922 17.4616 299.72 17.4616 272.988C6.01917 255.377 -0.0481458 234.818 -0.000206378 213.819C-0.000206378 169.849 26.0186 132.041 63.2929 115.349C68.2425 113.134 73.3569 111.306 78.59 109.883C80.4409 109.379 82.3118 108.928 84.2027 108.528C89.2434 107.455 94.3562 106.754 99.4998 106.431C101.359 106.315 103.228 106.249 105.107 106.233H106.138C108.213 106.233 110.269 106.305 112.314 106.425L112.986 105.286C113.809 103.911 114.653 102.551 115.516 101.204C117.076 98.7507 118.711 96.3333 120.422 93.9518C122.213 91.4385 124.081 88.9651 126.028 86.5317L126.526 85.9323C127.629 84.5578 128.757 83.1992 129.908 81.8566C133.506 77.6651 137.304 73.5994 141.301 69.6596C184.542 27.2964 252.285 0.0253296 328.44 0.0253296C387.698 0.0253296 441.864 16.5378 483.354 43.8209C499.072 34.9303 516.828 30.2653 534.888 30.2813C593.498 30.2813 641.026 78.4522 641.026 137.873C641.017 141.633 640.817 145.39 640.426 149.129C654.554 159.126 666.07 172.371 674.002 187.749C681.933 203.127 686.048 220.187 686 237.488Z" fill="#6C63FF"/>
<path opacity="0.2" d="M141.314 69.6342V81.8313H129.92C133.49 77.6437 137.288 73.578 141.314 69.6342Z" fill="#6C63FF"/>
<path opacity="0.2" d="M162.223 66.5415H146.926V81.8313H162.223V66.5415Z" fill="#6C63FF"/>
<path opacity="0.2" d="M183.127 66.5415H167.83V81.8313H183.127V66.5415Z" fill="#6C63FF"/>
<path opacity="0.2" d="M204.037 66.5415H188.74V81.8313H204.037V66.5415Z" fill="#6C63FF"/>
<path opacity="0.2" d="M224.941 66.5415H209.644V81.8313H224.941V66.5415Z" fill="#6C63FF"/>
<path opacity="0.2" d="M245.851 66.5415H230.554V81.8313H245.851V66.5415Z" fill="#6C63FF"/>
<path d="M266.76 66.5415H251.463V81.8313H266.76V66.5415Z" fill="#6C63FF"/>
<path opacity="0.2" d="M287.664 66.5415H272.367V81.8313H287.664V66.5415Z" fill="#6C63FF"/>
<path opacity="0.2" d="M308.574 66.5415H293.277V81.8313H308.574V66.5415Z" fill="#6C63FF"/>
<path opacity="0.2" d="M329.478 66.5415H314.181V81.8313H329.478V66.5415Z" fill="#6C63FF"/>
<path d="M350.388 66.5415H335.091V81.8313H350.388V66.5415Z" fill="#6C63FF"/>
<path opacity="0.2" d="M371.298 66.5415H356V81.8313H371.298V66.5415Z" fill="#6C63FF"/>
<path opacity="0.2" d="M392.201 66.5415H376.904V81.8313H392.201V66.5415Z" fill="#6C63FF"/>
<path opacity="0.2" d="M413.111 66.5415H397.814V81.8313H413.111V66.5415Z" fill="#6C63FF"/>
<path opacity="0.2" d="M434.021 66.5415H418.724V81.8313H434.021V66.5415Z" fill="#6C63FF"/>
<path opacity="0.2" d="M454.925 66.5415H439.627V81.8313H454.925V66.5415Z" fill="#6C63FF"/>
<path opacity="0.2" d="M475.835 66.5415H460.538V81.8313H475.835V66.5415Z" fill="#6C63FF"/>
<path d="M496.739 66.5415H481.441V81.8313H496.739V66.5415Z" fill="#6C63FF"/>
<path d="M517.648 66.5415H502.351V81.8313H517.648V66.5415Z" fill="#6C63FF"/>
<path opacity="0.2" d="M538.558 66.5415H523.261V81.8313H538.558V66.5415Z" fill="#6C63FF"/>
<path opacity="0.2" d="M559.462 66.5415H544.165V81.8313H559.462V66.5415Z" fill="#6C63FF"/>
<path d="M580.372 66.5415H565.075V81.8313H580.372V66.5415Z" fill="#6C63FF"/>
<path d="M601.275 66.5415H585.978V81.8313H601.275V66.5415Z" fill="#6C63FF"/>
<path d="M120.41 93.9445V101.197H115.504C117.063 98.7274 118.699 96.31 120.41 93.9445Z" fill="#6C63FF"/>
<path opacity="0.2" d="M141.314 85.907H126.017V101.197H141.314V85.907Z" fill="#6C63FF"/>
<path d="M162.223 85.907H146.926V101.197H162.223V85.907Z" fill="#6C63FF"/>
<path opacity="0.2" d="M183.127 85.907H167.83V101.197H183.127V85.907Z" fill="#6C63FF"/>
<path opacity="0.7" d="M204.037 85.907H188.74V101.197H204.037V85.907Z" fill="#6C63FF"/>
<path opacity="0.2" d="M224.941 85.907H209.644V101.197H224.941V85.907Z" fill="#6C63FF"/>
<path opacity="0.4" d="M245.851 85.907H230.554V101.197H245.851V85.907Z" fill="#6C63FF"/>
<path d="M266.76 85.907H251.463V101.197H266.76V85.907Z" fill="#6C63FF"/>
<path opacity="0.4" d="M287.664 85.907H272.367V101.197H287.664V85.907Z" fill="#6C63FF"/>
<path opacity="0.2" d="M308.574 85.907H293.277V101.197H308.574V85.907Z" fill="#6C63FF"/>
<path opacity="0.4" d="M329.478 85.907H314.181V101.197H329.478V85.907Z" fill="#6C63FF"/>
<path d="M350.388 85.907H335.091V101.197H350.388V85.907Z" fill="#6C63FF"/>
<path opacity="0.4" d="M371.298 85.907H356V101.197H371.298V85.907Z" fill="#6C63FF"/>
<path opacity="0.4" d="M392.201 85.907H376.904V101.197H392.201V85.907Z" fill="#6C63FF"/>
<path opacity="0.2" d="M413.111 85.907H397.814V101.197H413.111V85.907Z" fill="#6C63FF"/>
<path opacity="0.4" d="M434.021 85.907H418.724V101.197H434.021V85.907Z" fill="#6C63FF"/>
<path opacity="0.4" d="M454.925 85.907H439.627V101.197H454.925V85.907Z" fill="#6C63FF"/>
<path opacity="0.2" d="M475.835 85.907H460.538V101.197H475.835V85.907Z" fill="#6C63FF"/>
<path opacity="0.2" d="M496.739 85.907H481.441V101.197H496.739V85.907Z" fill="#6C63FF"/>
<path opacity="0.4" d="M517.648 85.907H502.351V101.197H517.648V85.907Z" fill="#6C63FF"/>
<path opacity="0.2" d="M538.558 85.907H523.261V101.197H538.558V85.907Z" fill="#6C63FF"/>
<path d="M559.462 85.907H544.165V101.197H559.462V85.907Z" fill="#6C63FF"/>
<path d="M580.372 85.907H565.075V101.197H580.372V85.907Z" fill="#6C63FF"/>
<path d="M601.275 85.907H585.978V101.197H601.275V85.907Z" fill="#6C63FF"/>
<path opacity="0.2" d="M78.59 109.882V120.568H63.293V115.348C68.2426 113.132 73.357 111.305 78.59 109.882Z" fill="#6C63FF"/>
<path opacity="0.2" d="M99.5002 106.429V120.568H84.2031V108.527L99.5002 106.429Z" fill="#6C63FF"/>
<path d="M120.404 105.278H105.107V120.568H120.404V105.278Z" fill="#6C63FF"/>
<path opacity="0.7" d="M141.314 105.278H126.017V120.568H141.314V105.278Z" fill="#6C63FF"/>
<path d="M162.223 105.278H146.926V120.568H162.223V105.278Z" fill="#6C63FF"/>
<path opacity="0.7" d="M183.127 105.278H167.83V120.568H183.127V105.278Z" fill="#6C63FF"/>
<path opacity="0.7" d="M204.037 105.278H188.74V120.568H204.037V105.278Z" fill="#6C63FF"/>
<path opacity="0.2" d="M224.941 105.278H209.644V120.568H224.941V105.278Z" fill="#6C63FF"/>
<path opacity="0.4" d="M245.851 105.278H230.554V120.568H245.851V105.278Z" fill="#6C63FF"/>
<path opacity="0.4" d="M266.76 105.278H251.463V120.568H266.76V105.278Z" fill="#6C63FF"/>
<path d="M287.664 105.278H272.367V120.568H287.664V105.278Z" fill="#6C63FF"/>
<path opacity="0.2" d="M308.574 105.278H293.277V120.568H308.574V105.278Z" fill="#6C63FF"/>
<path opacity="0.4" d="M329.478 105.278H314.181V120.568H329.478V105.278Z" fill="#6C63FF"/>
<path d="M350.388 105.278H335.091V120.568H350.388V105.278Z" fill="#6C63FF"/>
<path opacity="0.2" d="M371.298 105.278H356V120.568H371.298V105.278Z" fill="#6C63FF"/>
<path opacity="0.4" d="M392.201 105.278H376.904V120.568H392.201V105.278Z" fill="#6C63FF"/>
<path opacity="0.2" d="M413.111 105.278H397.814V120.568H413.111V105.278Z" fill="#6C63FF"/>
<path d="M434.021 105.278H418.724V120.568H434.021V105.278Z" fill="#6C63FF"/>
<path opacity="0.2" d="M454.925 105.278H439.627V120.568H454.925V105.278Z" fill="#6C63FF"/>
<path opacity="0.7" d="M475.835 105.278H460.538V120.568H475.835V105.278Z" fill="#6C63FF"/>
<path opacity="0.7" d="M496.739 105.278H481.441V120.568H496.739V105.278Z" fill="#6C63FF"/>
<path opacity="0.4" d="M517.648 105.278H502.351V120.568H517.648V105.278Z" fill="#6C63FF"/>
<path opacity="0.2" d="M538.558 105.278H523.261V120.568H538.558V105.278Z" fill="#6C63FF"/>
<path d="M559.462 105.278H544.165V120.568H559.462V105.278Z" fill="#6C63FF"/>
<path d="M580.372 105.278H565.075V120.568H580.372V105.278Z" fill="#6C63FF"/>
<path d="M601.275 105.278H585.978V120.568H601.275V105.278Z" fill="#6C63FF"/>
<path opacity="0.2" d="M78.59 124.644H63.293V139.934H78.59V124.644Z" fill="#6C63FF"/>
<path opacity="0.2" d="M99.5002 124.644H84.2031V139.934H99.5002V124.644Z" fill="#6C63FF"/>
<path opacity="0.2" d="M120.404 124.644H105.107V139.934H120.404V124.644Z" fill="#6C63FF"/>
<path opacity="0.2" d="M141.314 124.644H126.017V139.934H141.314V124.644Z" fill="#6C63FF"/>
<path d="M162.223 124.644H146.926V139.934H162.223V124.644Z" fill="#6C63FF"/>
<path opacity="0.7" d="M183.127 124.644H167.83V139.934H183.127V124.644Z" fill="#6C63FF"/>
<path opacity="0.7" d="M204.037 124.644H188.74V139.934H204.037V124.644Z" fill="#6C63FF"/>
<path opacity="0.2" d="M224.941 124.644H209.644V139.934H224.941V124.644Z" fill="#6C63FF"/>
<path opacity="0.2" d="M245.851 124.644H230.554V139.934H245.851V124.644Z" fill="#6C63FF"/>
<path opacity="0.4" d="M266.76 124.644H251.463V139.934H266.76V124.644Z" fill="#6C63FF"/>
<path opacity="0.4" d="M287.664 124.644H272.367V139.934H287.664V124.644Z" fill="#6C63FF"/>
<path d="M308.574 124.644H293.277V139.934H308.574V124.644Z" fill="#6C63FF"/>
<path opacity="0.2" d="M329.478 124.644H314.181V139.934H329.478V124.644Z" fill="#6C63FF"/>
<path opacity="0.4" d="M350.388 124.644H335.091V139.934H350.388V124.644Z" fill="#6C63FF"/>
<path opacity="0.4" d="M371.298 124.644H356V139.934H371.298V124.644Z" fill="#6C63FF"/>
<path opacity="0.4" d="M392.201 124.644H376.904V139.934H392.201V124.644Z" fill="#6C63FF"/>
<path opacity="0.4" d="M413.111 124.644H397.814V139.934H413.111V124.644Z" fill="#6C63FF"/>
<path opacity="0.2" d="M434.021 124.644H418.724V139.934H434.021V124.644Z" fill="#6C63FF"/>
<path opacity="0.2" d="M454.925 124.644H439.627V139.934H454.925V124.644Z" fill="#6C63FF"/>
<path opacity="0.2" d="M475.835 124.644H460.538V139.934H475.835V124.644Z" fill="#6C63FF"/>
<path opacity="0.2" d="M496.739 124.644H481.441V139.934H496.739V124.644Z" fill="#6C63FF"/>
<path opacity="0.7" d="M517.648 124.644H502.351V139.934H517.648V124.644Z" fill="#6C63FF"/>
<path opacity="0.7" d="M538.558 124.644H523.261V139.934H538.558V124.644Z" fill="#6C63FF"/>
<path opacity="0.4" d="M559.462 124.644H544.165V139.934H559.462V124.644Z" fill="#6C63FF"/>
<path opacity="0.2" d="M580.372 124.644H565.075V139.934H580.372V124.644Z" fill="#6C63FF"/>
<path d="M601.275 124.644H585.978V139.934H601.275V124.644Z" fill="#6C63FF"/>
<path opacity="0.2" d="M78.59 144.015H63.293V159.305H78.59V144.015Z" fill="#6C63FF"/>
<path opacity="0.2" d="M99.5002 144.015H84.2031V159.305H99.5002V144.015Z" fill="#6C63FF"/>
<path opacity="0.4" d="M120.404 144.015H105.107V159.305H120.404V144.015Z" fill="#6C63FF"/>
<path opacity="0.2" d="M141.314 144.015H126.017V159.305H141.314V144.015Z" fill="#6C63FF"/>
<path opacity="0.2" d="M162.223 144.015H146.926V159.305H162.223V144.015Z" fill="#6C63FF"/>
<path opacity="0.7" d="M183.127 144.015H167.83V159.305H183.127V144.015Z" fill="#6C63FF"/>
<path opacity="0.7" d="M204.037 144.015H188.74V159.305H204.037V144.015Z" fill="#6C63FF"/>
<path opacity="0.2" d="M224.941 144.015H209.644V159.305H224.941V144.015Z" fill="#6C63FF"/>
<path opacity="0.2" d="M245.851 144.015H230.554V159.305H245.851V144.015Z" fill="#6C63FF"/>
<path opacity="0.4" d="M266.76 144.015H251.463V159.305H266.76V144.015Z" fill="#6C63FF"/>
<path d="M287.664 144.015H272.367V159.305H287.664V144.015Z" fill="#6C63FF"/>
<path opacity="0.2" d="M308.574 144.015H293.277V159.305H308.574V144.015Z" fill="#6C63FF"/>
<path d="M329.478 144.015H314.181V159.305H329.478V144.015Z" fill="#6C63FF"/>
<path d="M350.388 144.015H335.091V159.305H350.388V144.015Z" fill="#6C63FF"/>
<path d="M371.298 144.015H356V159.305H371.298V144.015Z" fill="#6C63FF"/>
<path opacity="0.2" d="M392.201 144.015H376.904V159.305H392.201V144.015Z" fill="#6C63FF"/>
<path d="M413.111 144.015H397.814V159.305H413.111V144.015Z" fill="#6C63FF"/>
<path opacity="0.2" d="M434.021 144.015H418.724V159.305H434.021V144.015Z" fill="#6C63FF"/>
<path opacity="0.2" d="M454.925 144.015H439.627V159.305H454.925V144.015Z" fill="#6C63FF"/>
<path opacity="0.2" d="M475.835 144.015H460.538V159.305H475.835V144.015Z" fill="#6C63FF"/>
<path opacity="0.2" d="M496.739 144.015H481.441V159.305H496.739V144.015Z" fill="#6C63FF"/>
<path opacity="0.2" d="M517.648 144.015H502.351V159.305H517.648V144.015Z" fill="#6C63FF"/>
<path opacity="0.7" d="M538.558 144.015H523.261V159.305H538.558V144.015Z" fill="#6C63FF"/>
<path opacity="0.2" d="M559.462 144.015H544.165V159.305H559.462V144.015Z" fill="#6C63FF"/>
<path opacity="0.2" d="M580.372 144.015H565.075V159.305H580.372V144.015Z" fill="#6C63FF"/>
<path d="M601.275 144.015H585.978V159.305H601.275V144.015Z" fill="#6C63FF"/>
<path opacity="0.2" d="M78.59 163.381H63.293V178.671H78.59V163.381Z" fill="#6C63FF"/>
<path opacity="0.2" d="M99.5002 163.381H84.2031V178.671H99.5002V163.381Z" fill="#6C63FF"/>
<path opacity="0.2" d="M120.404 163.381H105.107V178.671H120.404V163.381Z" fill="#6C63FF"/>
<path opacity="0.4" d="M141.314 163.381H126.017V178.671H141.314V163.381Z" fill="#6C63FF"/>
<path opacity="0.2" d="M162.223 163.381H146.926V178.671H162.223V163.381Z" fill="#6C63FF"/>
<path opacity="0.2" d="M183.127 163.381H167.83V178.671H183.127V163.381Z" fill="#6C63FF"/>
<path opacity="0.7" d="M204.037 163.381H188.74V178.671H204.037V163.381Z" fill="#6C63FF"/>
<path opacity="0.2" d="M224.941 163.381H209.644V178.671H224.941V163.381Z" fill="#6C63FF"/>
<path opacity="0.2" d="M245.851 163.381H230.554V178.671H245.851V163.381Z" fill="#6C63FF"/>
<path opacity="0.2" d="M266.76 163.381H251.463V178.671H266.76V163.381Z" fill="#6C63FF"/>
<path d="M287.664 163.381H272.367V178.671H287.664V163.381Z" fill="#6C63FF"/>
<path opacity="0.2" d="M308.574 163.381H293.277V178.671H308.574V163.381Z" fill="#6C63FF"/>
<path d="M329.478 163.381H314.181V178.671H329.478V163.381Z" fill="#6C63FF"/>
<path d="M350.388 163.381H335.091V178.671H350.388V163.381Z" fill="#6C63FF"/>
<path opacity="0.2" d="M371.298 163.381H356V178.671H371.298V163.381Z" fill="#6C63FF"/>
<path opacity="0.2" d="M392.201 163.381H376.904V178.671H392.201V163.381Z" fill="#6C63FF"/>
<path opacity="0.2" d="M413.111 163.381H397.814V178.671H413.111V163.381Z" fill="#6C63FF"/>
<path opacity="0.2" d="M434.021 163.381H418.724V178.671H434.021V163.381Z" fill="#6C63FF"/>
<path opacity="0.2" d="M454.925 163.381H439.627V178.671H454.925V163.381Z" fill="#6C63FF"/>
<path opacity="0.2" d="M475.835 163.381H460.538V178.671H475.835V163.381Z" fill="#6C63FF"/>
<path opacity="0.2" d="M496.739 163.381H481.441V178.671H496.739V163.381Z" fill="#6C63FF"/>
<path opacity="0.2" d="M517.648 163.381H502.351V178.671H517.648V163.381Z" fill="#6C63FF"/>
<path opacity="0.2" d="M538.558 163.381H523.261V178.671H538.558V163.381Z" fill="#6C63FF"/>
<path opacity="0.2" d="M559.462 163.381H544.165V178.671H559.462V163.381Z" fill="#6C63FF"/>
<path opacity="0.4" d="M580.372 163.381H565.075V178.671H580.372V163.381Z" fill="#6C63FF"/>
<path d="M601.275 163.381H585.978V178.671H601.275V163.381Z" fill="#6C63FF"/>
<path opacity="0.7" d="M78.59 182.752H63.293V198.042H78.59V182.752Z" fill="#6C63FF"/>
<path opacity="0.7" d="M99.5002 182.752H84.2031V198.042H99.5002V182.752Z" fill="#6C63FF"/>
<path opacity="0.7" d="M120.404 182.752H105.107V198.042H120.404V182.752Z" fill="#6C63FF"/>
<path opacity="0.7" d="M141.314 182.752H126.017V198.042H141.314V182.752Z" fill="#6C63FF"/>
<path opacity="0.7" d="M162.223 182.752H146.926V198.042H162.223V182.752Z" fill="#6C63FF"/>
<path opacity="0.2" d="M183.127 182.752H167.83V198.042H183.127V182.752Z" fill="#6C63FF"/>
<path opacity="0.2" d="M204.037 182.752H188.74V198.042H204.037V182.752Z" fill="#6C63FF"/>
<path opacity="0.2" d="M224.941 182.752H209.644V198.042H224.941V182.752Z" fill="#6C63FF"/>
<path opacity="0.2" d="M245.851 182.752H230.554V198.042H245.851V182.752Z" fill="#6C63FF"/>
<path opacity="0.2" d="M266.76 182.752H251.463V198.042H266.76V182.752Z" fill="#6C63FF"/>
<path opacity="0.2" d="M287.664 182.752H272.367V198.042H287.664V182.752Z" fill="#6C63FF"/>
<path d="M308.574 182.752H293.277V198.042H308.574V182.752Z" fill="#6C63FF"/>
<path opacity="0.2" d="M329.478 182.752H314.181V198.042H329.478V182.752Z" fill="#6C63FF"/>
<path opacity="0.2" d="M350.388 182.752H335.091V198.042H350.388V182.752Z" fill="#6C63FF"/>
<path opacity="0.2" d="M371.298 182.752H356V198.042H371.298V182.752Z" fill="#6C63FF"/>
<path d="M392.201 182.752H376.904V198.042H392.201V182.752Z" fill="#6C63FF"/>
<path opacity="0.2" d="M413.111 182.752H397.814V198.042H413.111V182.752Z" fill="#6C63FF"/>
<path opacity="0.2" d="M434.021 182.752H418.724V198.042H434.021V182.752Z" fill="#6C63FF"/>
<path opacity="0.2" d="M454.925 182.752H439.627V198.042H454.925V182.752Z" fill="#6C63FF"/>
<path opacity="0.2" d="M475.835 182.752H460.538V198.042H475.835V182.752Z" fill="#6C63FF"/>
<path opacity="0.2" d="M496.739 182.752H481.441V198.042H496.739V182.752Z" fill="#6C63FF"/>
<path opacity="0.2" d="M517.648 182.752H502.351V198.042H517.648V182.752Z" fill="#6C63FF"/>
<path opacity="0.2" d="M538.558 182.752H523.261V198.042H538.558V182.752Z" fill="#6C63FF"/>
<path opacity="0.2" d="M559.462 182.752H544.165V198.042H559.462V182.752Z" fill="#6C63FF"/>
<path opacity="0.2" d="M580.372 182.752H565.075V198.042H580.372V182.752Z" fill="#6C63FF"/>
<path d="M601.275 182.752H585.978V198.042H601.275V182.752Z" fill="#D7D4FF"/>
<path d="M440.455 239.003C452.003 239.003 461.365 229.646 461.365 218.103C461.365 206.56 452.003 197.203 440.455 197.203C428.907 197.203 419.545 206.56 419.545 218.103C419.545 229.646 428.907 239.003 440.455 239.003Z" fill="#767D9F"/>
<path d="M439.37 191.515C441.456 200.617 443.227 209.788 444.683 219.026C445.12 221.771 445.51 224.666 444.515 227.261C443.681 229.425 441.984 231.115 440.653 233.009C439.322 234.903 438.314 237.331 439.124 239.5C439.933 241.67 442.296 242.857 444.551 243.468C451.003 245.206 457.881 243.942 464.303 242.06C467.211 241.311 469.999 240.157 472.584 238.631C475.307 236.905 477.537 234.508 479.588 232.038C488.949 220.692 495.077 207.075 500.846 193.541C497.139 193.878 493.405 193.329 489.953 191.939C486.501 190.548 483.429 188.357 480.991 185.545C478.629 182.77 476.896 178.904 478.227 175.512C474.323 177.652 469.688 177.796 465.484 179.258C462.878 180.253 460.368 181.487 457.989 182.944C455.119 184.602 452.264 186.293 449.426 188.015C446.182 189.969 443.141 191.707 439.37 191.515Z" fill="#F2B0B0"/>
<path d="M483.102 207.206C479.439 214.333 474.671 221.184 467.865 225.427C461.059 229.671 451.897 230.821 445.079 226.626C441.721 224.576 439.178 221.459 436.246 218.834C433.313 216.209 429.65 213.961 425.71 214.303C421.368 214.681 417.968 218.067 415.06 221.31C410.647 226.236 406.383 231.373 403.259 237.205C397.262 248.413 395.841 261.515 396.105 274.221C396.369 286.928 398.21 299.569 398.252 312.275C398.312 327.907 395.661 343.412 392.981 358.81C417.627 355.777 442.302 362.406 467.002 364.917C482.809 366.542 498.735 366.506 514.626 366.464C517.42 366.464 520.395 366.392 522.721 364.845C524.143 363.809 525.294 362.443 526.073 360.866C528.268 356.82 529.15 352.205 529.761 347.644C531.314 336.124 531.362 324.46 531.404 312.833C531.512 284.662 531.614 256.39 528.034 228.442C527.153 221.567 526.025 214.657 523.387 208.225C520.749 201.794 516.443 195.878 510.423 192.432C506.555 190.214 497.59 186.355 493.033 188.59C487.918 191.084 485.555 202.436 483.102 207.206Z" fill="#767D9F"/>
<path d="M484.925 286.754C483.996 269.373 480.212 250.822 488.265 235.395C490.244 231.607 483.144 226.878 485.339 223.21C488.017 218.737 490.048 213.908 491.371 208.867C491.827 207.135 492.193 205.3 491.761 203.562C490.964 200.392 487.827 198.504 485.165 196.574C482.227 194.44 480.716 187.937 479.768 184.419C478.821 180.9 487.306 185.138 490.718 183.885C495.455 182.153 501.475 183.244 506.201 185C508.839 185.971 511.706 186.055 514.518 186.127C519.981 186.271 525.462 186.409 530.882 185.737C533.317 185.432 535.758 184.97 538.204 185.108C544.446 185.462 549.873 189.729 553.567 194.776C557.261 199.822 559.612 205.702 562.64 211.168C565.164 215.723 568.175 220.027 570.327 224.768C572.234 228.963 573.44 233.471 574.633 237.954L577.709 249.456C578.247 251.101 578.503 252.826 578.465 254.556C578.309 256.396 577.493 258.111 576.666 259.747C573.537 265.811 569.785 271.534 565.47 276.823C559 284.752 551.145 291.903 547.301 301.397C545.802 305.095 544.968 309.027 544.207 312.946C541.136 328.624 538.954 344.463 537.67 360.386C530.664 357.145 523.319 354.691 515.771 353.068C512.009 352.263 508.205 351.663 504.378 351.27C501.026 350.922 496.702 351.581 493.512 350.67C488.175 349.154 487.588 340.134 486.778 335.411C485.483 327.889 485.225 320.235 485.177 312.635C485.117 303.992 485.387 295.367 484.925 286.754Z" fill="#4C4981"/>
<path d="M367.724 254.251C370.248 268.635 373.031 283.062 378.517 296.578C378.379 296.71 378.241 296.83 378.104 296.949C377.618 297.363 377.114 297.753 376.586 298.148C375.357 299.011 374.008 299.742 372.989 300.869C372.603 301.3 372.298 301.798 372.089 302.338C371.901 302.759 371.803 303.216 371.803 303.677C371.803 304.139 371.901 304.595 372.089 305.017C369.229 306.282 365.907 305.892 362.699 305.772C359.934 305.67 357.254 305.772 355.035 307.288C351.953 309.41 351.023 313.486 350.526 317.19C350.342 318.541 350.184 319.893 350.052 321.248C349.924 322.506 349.82 323.769 349.74 325.036C349.468 329.226 349.43 333.428 349.626 337.622C349.658 338.39 349.7 339.157 349.752 339.924C339.954 339.69 331.025 334.584 322.576 329.621C320.645 328.488 318.654 327.295 317.401 325.425C316.246 323.589 315.757 321.411 316.016 319.258C316.016 318.952 316.07 318.658 316.112 318.347C316.38 316.568 316.841 314.824 317.485 313.144C320.128 305.99 324.025 299.364 328.992 293.575C331.139 291.07 333.556 288.618 334.557 285.472C334.995 284.099 335.157 282.643 335.6 281.276C337.591 275.354 344.775 272.555 347.234 266.807C347.833 265.435 348.109 263.93 348.853 262.612C349.522 261.516 350.386 260.551 351.401 259.765C351.839 259.399 352.295 259.046 352.744 258.692C356.958 255.391 361.018 251.905 364.923 248.233C365.651 247.55 366.37 246.858 367.082 246.159C366.987 248.872 367.202 251.587 367.724 254.251Z" fill="#4C4981"/>
<path d="M428.15 211.708C427.287 212.619 426.351 213.476 425.434 214.327L425.188 214.549L424.217 215.448C422.453 216.969 420.927 218.744 419.689 220.716L419.587 220.884C416.529 226.356 417.662 233.093 418.514 239.308C419.57 247.054 420.045 254.867 419.935 262.684C419.779 273.472 418.508 284.189 418.484 294.965C418.484 297.411 418.538 299.85 418.646 302.296C418.82 306.27 419.119 310.237 419.479 314.205C419.869 318.556 420.337 322.902 420.775 327.247C421.122 330.61 421.452 333.966 421.728 337.323C421.866 339.061 421.998 340.793 422.106 342.531C422.232 344.569 422.334 346.613 422.394 348.651C422.436 349.945 422.46 351.234 422.46 352.528C422.46 353.266 422.46 353.997 422.46 354.728C422.46 356.131 422.422 357.529 422.346 358.924C422.266 360.718 422.144 362.516 421.98 364.318C421.794 366.278 421.464 368.418 420.085 369.796C420.001 369.88 419.911 369.958 419.821 370.036L417.878 369.796C404.485 368.193 390.964 367.953 377.522 369.077C377.816 367.051 378.085 365.031 378.349 362.999C378.469 362.04 378.589 361.075 378.703 360.11C378.835 359.008 378.961 357.905 379.081 356.802C379.219 355.603 379.345 354.405 379.465 353.206C379.776 350.117 380.05 347.026 380.286 343.934C380.634 339.422 380.898 334.903 381.078 330.376C381.166 328.214 381.234 326.051 381.282 323.885C381.35 321.2 381.381 318.513 381.377 315.823C381.377 313.21 381.356 310.593 381.312 307.972C381.312 307.109 381.276 306.246 381.204 305.388C381.152 304.617 381.046 303.85 380.886 303.093C380.441 301.348 379.838 299.647 379.087 298.01C378.955 297.699 378.829 297.411 378.703 297.081C378.631 296.919 378.565 296.752 378.499 296.59C381.953 293.515 384.412 289.397 386.774 285.346C390.606 278.819 394.528 272.004 395.169 264.464C395.811 256.924 392.063 248.455 384.855 246.153C382.895 245.554 380.82 245.386 378.799 245.032C376.892 244.697 372.916 243.936 370.71 242.569C369.51 243.8 368.311 245.008 367.112 246.195C367.185 244.384 367.627 242.608 368.413 240.975L369.265 241.017C369.195 240.825 369.163 240.621 369.169 240.417C369.169 239.776 369.612 239.051 370.56 238.248C373.384 235.85 377.828 235.317 379.609 232.074C380.352 230.726 380.478 229.119 381.078 227.705C382.799 223.671 387.74 222.185 390.714 218.96C393.688 215.735 394.432 211.168 396.836 207.572C398.633 204.946 401.124 202.871 404.032 201.578C404.272 201.465 404.518 201.351 404.764 201.249C409.741 199.121 415.654 198.636 420.811 198.648C422.813 198.648 428.006 198.707 430.549 199.72C430.961 199.868 431.339 200.098 431.658 200.398C434.369 203.347 430.153 209.574 428.15 211.708Z" fill="#4C4981"/>
<path d="M368.617 240.555C373.249 239.161 378.112 238.702 382.924 239.203C387.735 239.704 392.399 241.156 396.645 243.474C400.962 245.871 404.836 249.216 407.21 253.531C410.778 260.005 410.622 267.808 410.371 275.198C410.245 278.896 410.083 282.726 408.452 286.047C406.563 289.889 403.001 292.526 399.367 294.684C397.09 296.135 394.596 297.214 391.979 297.878C387.95 298.753 383.764 298.01 379.704 297.279C375.291 296.464 370.554 295.481 367.49 292.196C365.691 290.29 364.707 287.815 363.736 285.394C362.341 281.897 360.941 278.405 359.538 274.917C357.11 268.857 356.288 263.816 359.496 257.913C360.953 255.222 362.734 252.704 364.173 249.995C364.893 248.617 367.471 240.909 368.617 240.555Z" fill="#4C4981"/>
<path d="M620.638 344.167V362.088C608.338 367.196 595.142 369.804 581.823 369.76H420.103C420.019 369.844 419.929 369.922 419.839 370L417.896 369.76H130.226C106.09 369.76 83.7232 363.251 65.3799 352.163V324.802L203.731 308.841H203.839L284.408 315.662L305.258 317.46L316.088 318.377L338.503 320.277L350.034 321.254L366.824 322.68L369.187 322.878L381.288 323.903L397.706 325.251L420.793 327.205L459.278 330.472L486.352 332.767L530.811 336.537L539.266 337.251L540.177 337.329L540.969 337.395L552.134 338.342L564.391 339.384L565.812 339.504L620.638 344.167Z" fill="#504F60"/>
<path d="M458.133 343.508L284.75 313.929L278.028 347.907L357.506 357.419L381.977 360.482L449.294 347.23L458.133 343.508Z" fill="#9C9CA1"/>
<path d="M368.383 358.78L455.249 342.459C455.683 342.376 456.131 342.39 456.559 342.5C456.988 342.61 457.387 342.814 457.727 343.097C458.068 343.379 458.341 343.733 458.529 344.134C458.716 344.535 458.812 344.972 458.811 345.414C458.812 346.116 458.568 346.796 458.12 347.336C457.672 347.876 457.048 348.241 456.358 348.369L371.525 364.246L368.383 358.78Z" fill="#9C9CA1"/>
<path d="M406.065 307.456C408.769 307.205 411.51 306.779 413.944 305.58C416.943 304.088 419.275 301.517 422.052 299.623C428.156 295.427 436.323 294.864 443.321 297.273C450.319 299.682 456.16 304.843 460.249 311.004C462.966 315.11 465.005 320.349 463.086 324.88C462.427 326.265 461.597 327.562 460.615 328.74L455.614 335.273C454.664 336.646 453.521 337.875 452.22 338.923C450.349 340.283 448.023 340.841 445.732 341.177C439.645 342.064 433.451 341.56 427.317 341.968C416.781 342.669 406.491 346.061 395.931 345.948C389.862 345.882 383.872 344.659 377.941 343.436L351.695 338.042C347.125 337.107 341.962 335.74 339.81 331.599C338.844 329.735 338.664 327.577 338.55 325.479C338.239 319.701 338.55 313.276 342.556 309.111C346.322 305.203 352.276 303.968 356.774 301.079C362.279 297.537 364.095 298.682 369.9 301.343C381.224 306.469 393.684 308.575 406.065 307.456Z" fill="#FFB9B9"/>
<path opacity="0.05" d="M406.065 307.456C408.769 307.205 411.51 306.779 413.944 305.58C416.943 304.088 419.275 301.517 422.052 299.623C428.156 295.427 436.323 294.864 443.321 297.273C450.319 299.682 456.16 304.843 460.249 311.004C462.966 315.11 465.005 320.349 463.086 324.88C462.427 326.265 461.597 327.562 460.615 328.74L455.614 335.273C454.664 336.646 453.521 337.875 452.22 338.923C450.349 340.283 448.023 340.841 445.732 341.177C439.645 342.064 433.451 341.56 427.317 341.968C416.781 342.669 406.491 346.061 395.931 345.948C389.862 345.882 383.872 344.659 377.941 343.436L351.695 338.042C347.125 337.107 341.962 335.74 339.81 331.599C338.844 329.735 338.664 327.577 338.55 325.479C338.239 319.701 338.55 313.276 342.556 309.111C346.322 305.203 352.276 303.968 356.774 301.079C362.279 297.537 364.095 298.682 369.9 301.343C381.224 306.469 393.684 308.575 406.065 307.456Z" fill="black"/>
<path d="M511.466 299.239C504.102 302.086 496.697 304.945 488.985 306.641C476.057 309.488 462.529 309.039 449.702 312.293C442.926 314.019 436.192 316.8 429.23 316.237C426.118 315.985 423.114 315.038 420.085 314.319C403.073 310.123 383.735 311.484 369.919 322.273C365.193 325.959 361.326 330.556 357.818 335.459C357.067 336.518 356.56 337.729 356.332 339.007C356.104 340.285 356.162 341.597 356.5 342.85C356.839 344.103 357.45 345.265 358.291 346.255C359.131 347.244 360.18 348.035 361.362 348.573C366.735 351.042 372.49 352.577 378.38 353.11C386.253 353.805 394.162 352.69 401.994 351.575C413.615 349.927 425.242 348.273 436.834 346.421C440.995 345.756 445.157 345.066 449.342 344.539C479.463 340.733 510.129 345.36 540.327 342.183C543.379 341.86 546.486 341.44 549.262 340.14C556.29 336.843 559.768 328.152 558.317 320.516C556.866 312.88 551.265 306.533 544.525 302.637C538.876 299.359 532.784 298.034 526.493 296.644C520.653 295.283 517.091 297.081 511.466 299.239Z" fill="#FFB9B9"/>
<path opacity="0.1" d="M576.066 253.591C579.388 257.943 580.096 263.781 579.736 269.229C579.376 274.677 578.081 280.065 577.889 285.537C577.625 293.042 579.436 300.522 579.13 308.002C578.915 313.234 577.673 318.365 576.204 323.387C574.471 329.315 571.965 335.686 566.49 338.533C559.222 342.315 543.979 340.188 536.333 343.148C537.029 338.815 543.697 332.54 544.393 328.206C544.872 325.209 545.358 322.129 544.842 319.126C544.183 315.296 541.934 311.898 539.266 309.069C535.02 304.567 529.479 301.181 523.393 300.078C517.306 298.975 502.405 299.88 497.536 303.722C496.936 299.754 508.09 295.93 512.012 295.073C513.966 294.636 516.209 294.882 517.774 293.641C520.772 291.291 518.596 286.61 518.74 282.852C518.854 279.855 520.605 277.11 520.958 274.114C521.558 269.319 518.428 264.434 519.657 259.729C520.113 257.991 521.126 256.462 521.828 254.808C523.963 249.743 523.027 243.966 521.888 238.583C521.18 235.203 520.491 231.391 522.373 228.508C524.118 225.817 529.072 235.401 532.244 234.957C542.72 233.489 552.2 225.727 560.661 232.08C564.973 235.317 565.536 238.673 567.257 243.294C568.93 247.694 573.266 249.947 576.066 253.591Z" fill="black"/>
<path d="M577.865 253.591C581.187 257.943 581.895 263.781 581.535 269.229C581.175 274.677 579.88 280.065 579.688 285.537C579.424 293.042 581.235 300.522 580.929 308.002C580.713 313.234 579.472 318.365 578.003 323.387C576.27 329.315 573.763 335.686 568.289 338.533C561.021 342.315 545.778 340.188 538.132 343.148C538.828 338.815 545.496 332.54 546.191 328.206C546.671 325.209 547.157 322.129 546.641 319.126C545.982 315.296 543.733 311.898 541.064 309.069C536.819 304.567 531.278 301.181 525.192 300.078C519.105 298.975 504.204 299.88 499.335 303.722C498.735 299.754 509.889 295.93 513.81 295.073C515.765 294.636 518.008 294.882 519.573 293.641C522.571 291.291 520.395 286.61 520.538 282.852C520.652 279.856 522.403 277.11 522.757 274.114C523.357 269.319 520.227 264.434 521.456 259.729C521.912 257.991 522.925 256.462 523.627 254.808C525.761 249.743 524.826 243.966 523.687 238.583C522.979 235.203 522.289 231.391 524.172 228.508C525.917 225.817 529.329 224.798 532.501 224.348C543.122 222.912 553.884 225.688 562.484 232.08C566.795 235.317 567.359 238.673 569.08 243.294C570.729 247.694 575.065 249.947 577.865 253.591Z" fill="#4C4981"/>
<path d="M181.095 225.193L213.698 345.63C214.098 347.105 214.938 348.424 216.107 349.41C217.276 350.397 218.717 351.003 220.24 351.15L366.986 365.241C368.182 365.356 369.388 365.183 370.504 364.737C371.619 364.29 372.611 363.583 373.397 362.675C374.183 361.766 374.739 360.682 375.02 359.515C375.3 358.347 375.297 357.129 375.01 355.963L339.306 210.689C338.882 208.962 337.858 207.442 336.417 206.398C334.977 205.354 333.213 204.855 331.439 204.989L187.769 215.729C186.666 215.815 185.595 216.143 184.633 216.69C183.672 217.237 182.842 217.989 182.205 218.893C181.568 219.797 181.137 220.83 180.946 221.919C180.754 223.008 180.804 224.126 181.095 225.193Z" fill="#9C9CA1"/>
<path d="M471.991 248.695C480.9 248.695 488.122 241.382 488.122 232.362C488.122 223.342 480.9 216.029 471.991 216.029C463.082 216.029 455.86 223.342 455.86 232.362C455.86 241.382 463.082 248.695 471.991 248.695Z" fill="white"/>
<path d="M485.237 202.567C485.237 202.567 488.637 212.673 478.605 216.922L477.322 219.164L483.606 225.361C483.606 225.361 491.354 211.234 490.514 206.218C490.514 206.218 489.315 201.123 485.237 202.567Z" fill="white"/>
<path d="M473.844 248.695C482.435 248.695 489.399 241.734 489.399 233.147C489.399 224.56 482.435 217.599 473.844 217.599C465.253 217.599 458.289 224.56 458.289 233.147C458.289 241.734 465.253 248.695 473.844 248.695Z" fill="#6C63FF"/>
<path d="M490.592 208.513L488.121 204.437L484.523 203.928C485.291 190.508 481.807 186.51 481.807 186.51L480.997 186.432L477.471 186.091L470.839 179.21V177.256C480.158 178.365 485.309 182.788 488.091 187.973C493.008 197.071 490.592 208.513 490.592 208.513Z" fill="#6C63FF"/>
<path opacity="0.1" d="M481.027 183.963V186.432L477.501 186.091L470.869 179.21C470.869 179.21 481.129 181.506 481.027 183.963Z" fill="black" stroke="#4C4981" stroke-miterlimit="10"/>
<path opacity="0.1" d="M490.592 208.513L488.122 204.437V187.997C493.009 197.071 490.592 208.513 490.592 208.513Z" fill="black" stroke="#4C4981" stroke-miterlimit="10"/>
<path d="M445.1 239.538C449.239 237.15 449.061 229.097 444.702 221.552C440.344 214.007 433.456 209.826 429.317 212.215C425.179 214.603 425.357 222.656 429.715 230.201C434.073 237.746 440.962 241.926 445.1 239.538Z" fill="white"/>
<path d="M439.544 224.558C443.903 232.104 449.252 237.145 445.114 239.542C440.977 241.94 428.924 240.741 424.564 233.189C420.205 225.637 424.163 215.208 428.3 212.811C432.438 210.413 435.178 216.994 439.544 224.558Z" fill="#6C63FF"/>
<path opacity="0.1" d="M478.359 170.196C478.359 194.308 461.85 217.546 437.727 217.546C426.141 217.546 415.029 212.945 406.837 204.757C398.644 196.568 394.042 185.462 394.042 173.882C394.042 162.301 398.644 151.195 406.837 143.007C415.029 134.818 426.141 130.218 437.727 130.218C461.85 130.242 478.359 146.077 478.359 170.196Z" fill="black"/>
<path d="M437.727 216.371C461.853 216.371 481.411 196.822 481.411 172.707C481.411 148.592 461.853 129.043 437.727 129.043C413.6 129.043 394.042 148.592 394.042 172.707C394.042 196.822 413.6 216.371 437.727 216.371Z" fill="#FFB9B9"/>
<path d="M482.576 128.423L491.293 126.577C491.293 126.577 477.511 104.856 453.516 102.369L461.461 96.1865C461.461 96.1865 446.293 86.8298 428.497 101.384C419.142 109.035 408.289 118.053 400.598 128.999L391.869 127.483L394.118 136.136L379.974 141.942L393.312 142.774C391.768 147.031 390.869 151.494 390.644 156.016C390.436 160.542 391.995 164.973 394.992 168.372C394.992 168.372 408.736 149.207 409.303 145.945L407.885 154.101C407.885 154.101 417.312 148.176 418.162 143.282L421.616 149.764L425.398 141.178L451.255 154.913L448.085 146.8L464.702 152.207L459.592 142.076C459.592 142.076 477.015 156.026 476.197 165.127C475.379 174.228 479.54 183.709 479.54 183.709C479.54 183.709 501.938 144.391 482.576 128.423Z" fill="#2F2E41"/>
</g>
<defs>
<clipPath id="clip0">
<rect width="686" height="370" fill="white"/>
</clipPath>
</defs>
</svg>
