<svg width="397" height="165" viewBox="0 0 397 165" fill="none" xmlns="http://www.w3.org/2000/svg">
<path d="M28.35 64.7C23.6833 64.7 19.4833 63.6967 15.75 61.69C12.0633 59.6367 9.14667 56.72 7 52.94C4.9 49.1133 3.85 44.6567 3.85 39.57C3.85 34.4833 4.9 30.05 7 26.27C9.14667 22.4433 12.0633 19.5267 15.75 17.52C19.4833 15.4667 23.6833 14.44 28.35 14.44C31.5233 14.44 34.3467 14.8133 36.82 15.56C39.34 16.3067 41.8367 17.38 44.31 18.78C45.3367 19.34 45.85 20.2267 45.85 21.44C45.85 22.14 45.5933 22.77 45.08 23.33C44.5667 23.8433 43.89 24.1 43.05 24.1C42.5833 24.1 42.1633 24.0067 41.79 23.82C39.7367 22.7467 37.73 21.93 35.77 21.37C33.81 20.81 31.5467 20.53 28.98 20.53C24.9667 20.53 21.5367 21.37 18.69 23.05C15.89 24.6833 13.7667 26.9467 12.32 29.84C10.92 32.6867 10.22 35.93 10.22 39.57C10.22 43.21 10.92 46.4767 12.32 49.37C13.7667 52.2167 15.89 54.48 18.69 56.16C21.5367 57.7933 24.9667 58.61 28.98 58.61C31.5467 58.61 33.81 58.33 35.77 57.77C37.73 57.21 39.7367 56.3933 41.79 55.32C42.1633 55.1333 42.5833 55.04 43.05 55.04C43.89 55.04 44.5667 55.2967 45.08 55.81C45.5933 56.3233 45.85 56.9533 45.85 57.7C45.85 58.9133 45.3367 59.8 44.31 60.36C41.8367 61.76 39.34 62.8333 36.82 63.58C34.3467 64.3267 31.5233 64.7 28.35 64.7ZM63.3019 64.7C61.2485 64.7 59.3352 64.28 57.5619 63.44C55.8352 62.6 54.4585 61.3867 53.4319 59.8C52.4052 58.1667 51.8919 56.3 51.8919 54.2C51.8919 50.7467 53.2452 47.9933 55.9519 45.94C58.7052 43.8867 62.7185 42.86 67.9919 42.86H76.4619V42.3C76.4619 39.22 75.6919 37.0033 74.1519 35.65C72.6585 34.2967 70.3019 33.62 67.0819 33.62C65.3085 33.62 63.7219 33.76 62.3219 34.04C60.9685 34.32 59.4519 34.74 57.7719 35.3C57.3985 35.3933 57.0952 35.44 56.8619 35.44C56.1619 35.44 55.5552 35.1833 55.0419 34.67C54.5285 34.1567 54.2719 33.5267 54.2719 32.78C54.2719 31.52 54.8785 30.6333 56.0919 30.12C60.0585 28.44 64.0952 27.6 68.2019 27.6C71.4219 27.6 74.1285 28.2533 76.3219 29.56C78.5619 30.8667 80.1952 32.57 81.2219 34.67C82.2952 36.7233 82.8319 38.9633 82.8319 41.39V61.2C82.8319 62.0867 82.5052 62.8333 81.8519 63.44C81.2452 64.0467 80.4985 64.35 79.6119 64.35C78.7252 64.35 77.9785 64.0467 77.3719 63.44C76.7652 62.8333 76.4619 62.0867 76.4619 61.2V59.38C73.0085 62.9267 68.6219 64.7 63.3019 64.7ZM65.6819 59.1C67.7352 59.1 69.7185 58.61 71.6319 57.63C73.5452 56.6033 75.1552 55.3433 76.4619 53.85V47.97H68.8319C61.7852 47.97 58.2619 49.8133 58.2619 53.5C58.2619 55.18 58.8219 56.5333 59.9419 57.56C61.1085 58.5867 63.0219 59.1 65.6819 59.1ZM96.6585 64.35C95.7718 64.35 95.0252 64.0467 94.4185 63.44C93.8118 62.8333 93.5085 62.0867 93.5085 61.2V15.77C93.5085 14.8833 93.8118 14.1367 94.4185 13.53C95.0252 12.8767 95.7718 12.55 96.6585 12.55C97.5918 12.55 98.3618 12.8533 98.9685 13.46C99.5752 14.0667 99.8785 14.8367 99.8785 15.77V61.2C99.8785 62.0867 99.5518 62.8333 98.8985 63.44C98.2918 64.0467 97.5452 64.35 96.6585 64.35ZM127.46 64.7C124.1 64.7 120.997 63.9533 118.15 62.46C115.303 60.9667 113.017 58.82 111.29 56.02C109.61 53.22 108.77 49.93 108.77 46.15C108.77 42.37 109.61 39.08 111.29 36.28C113.017 33.48 115.303 31.3333 118.15 29.84C120.997 28.3467 124.1 27.6 127.46 27.6C129.933 27.6 132.057 27.9267 133.83 28.58C135.65 29.1867 137.33 29.98 138.87 30.96C139.803 31.5667 140.27 32.3833 140.27 33.41C140.27 34.11 139.99 34.7633 139.43 35.37C138.917 35.93 138.31 36.21 137.61 36.21C137.097 36.21 136.583 36.07 136.07 35.79C134.53 34.9967 133.2 34.4367 132.08 34.11C131.007 33.7367 129.653 33.55 128.02 33.55C124.007 33.55 120.857 34.7167 118.57 37.05C116.283 39.3367 115.14 42.37 115.14 46.15C115.14 49.93 116.283 52.9867 118.57 55.32C120.857 57.6067 124.007 58.75 128.02 58.75C129.653 58.75 131.007 58.5867 132.08 58.26C133.2 57.8867 134.53 57.3033 136.07 56.51C136.583 56.23 137.097 56.09 137.61 56.09C138.31 56.09 138.917 56.3933 139.43 57C139.99 57.56 140.27 58.19 140.27 58.89C140.27 59.9167 139.803 60.7333 138.87 61.34C137.33 62.32 135.65 63.1367 133.83 63.79C132.057 64.3967 129.933 64.7 127.46 64.7ZM160.444 64.7C157.878 64.7 155.638 64.0933 153.724 62.88C151.858 61.6667 150.411 60.01 149.384 57.91C148.404 55.81 147.914 53.5 147.914 50.98V31.1C147.914 30.2133 148.218 29.4667 148.824 28.86C149.478 28.2533 150.248 27.95 151.134 27.95C152.021 27.95 152.768 28.2533 153.374 28.86C153.981 29.4667 154.284 30.2133 154.284 31.1V50.28C154.284 55.9733 156.851 58.82 161.984 58.82C164.318 58.82 166.394 58.2133 168.214 57C170.081 55.7867 171.831 54.1533 173.464 52.1V31.1C173.464 30.2133 173.768 29.4667 174.374 28.86C175.028 28.2533 175.798 27.95 176.684 27.95C177.571 27.95 178.318 28.2533 178.924 28.86C179.531 29.4667 179.834 30.2133 179.834 31.1V61.13C179.834 62.0167 179.531 62.7867 178.924 63.44C178.318 64.0467 177.571 64.35 176.684 64.35C175.798 64.35 175.028 64.0467 174.374 63.44C173.768 62.7867 173.464 62.0167 173.464 61.13V58.26C171.691 60.22 169.778 61.7833 167.724 62.95C165.671 64.1167 163.244 64.7 160.444 64.7ZM194.071 64.35C193.184 64.35 192.437 64.0467 191.831 63.44C191.224 62.8333 190.921 62.0867 190.921 61.2V15.77C190.921 14.8833 191.224 14.1367 191.831 13.53C192.437 12.8767 193.184 12.55 194.071 12.55C195.004 12.55 195.774 12.8533 196.381 13.46C196.987 14.0667 197.291 14.8367 197.291 15.77V61.2C197.291 62.0867 196.964 62.8333 196.311 63.44C195.704 64.0467 194.957 64.35 194.071 64.35ZM217.452 64.7C215.399 64.7 213.486 64.28 211.712 63.44C209.986 62.6 208.609 61.3867 207.582 59.8C206.556 58.1667 206.042 56.3 206.042 54.2C206.042 50.7467 207.396 47.9933 210.102 45.94C212.856 43.8867 216.869 42.86 222.142 42.86H230.612V42.3C230.612 39.22 229.842 37.0033 228.302 35.65C226.809 34.2967 224.452 33.62 221.232 33.62C219.459 33.62 217.872 33.76 216.472 34.04C215.119 34.32 213.602 34.74 211.922 35.3C211.549 35.3933 211.246 35.44 211.012 35.44C210.312 35.44 209.706 35.1833 209.192 34.67C208.679 34.1567 208.422 33.5267 208.422 32.78C208.422 31.52 209.029 30.6333 210.242 30.12C214.209 28.44 218.246 27.6 222.352 27.6C225.572 27.6 228.279 28.2533 230.472 29.56C232.712 30.8667 234.346 32.57 235.372 34.67C236.446 36.7233 236.982 38.9633 236.982 41.39V61.2C236.982 62.0867 236.656 62.8333 236.002 63.44C235.396 64.0467 234.649 64.35 233.762 64.35C232.876 64.35 232.129 64.0467 231.522 63.44C230.916 62.8333 230.612 62.0867 230.612 61.2V59.38C227.159 62.9267 222.772 64.7 217.452 64.7ZM219.832 59.1C221.886 59.1 223.869 58.61 225.782 57.63C227.696 56.6033 229.306 55.3433 230.612 53.85V47.97H222.982C215.936 47.97 212.412 49.8133 212.412 53.5C212.412 55.18 212.972 56.5333 214.092 57.56C215.259 58.5867 217.172 59.1 219.832 59.1ZM259.159 64.7C252.345 64.7 248.939 61.62 248.939 55.46V33.76H243.969C243.595 33.76 243.269 33.6433 242.989 33.41C242.755 33.13 242.639 32.8033 242.639 32.43C242.639 31.9633 242.849 31.5667 243.269 31.24L252.789 21.93C253.209 21.51 253.605 21.3 253.979 21.3C254.352 21.3 254.655 21.44 254.889 21.72C255.169 22 255.309 22.3267 255.309 22.7V28.3H263.219C264.012 28.3 264.665 28.5567 265.179 29.07C265.692 29.5833 265.949 30.2367 265.949 31.03C265.949 31.7767 265.692 32.43 265.179 32.99C264.665 33.5033 264.012 33.76 263.219 33.76H255.309V54.9C255.309 56.72 255.729 57.8867 256.569 58.4C257.455 58.8667 258.552 59.1 259.859 59.1C260.792 59.1 261.725 58.96 262.659 58.68C262.845 58.6333 263.032 58.5867 263.219 58.54C263.452 58.4933 263.732 58.47 264.059 58.47C264.712 58.47 265.295 58.7267 265.809 59.24C266.322 59.7067 266.579 60.29 266.579 60.99C266.579 62.0633 266.042 62.88 264.969 63.44C263.149 64.28 261.212 64.7 259.159 64.7ZM289.049 64.7C283.355 64.7 278.899 63.09 275.679 59.87C272.505 56.6033 270.919 52.03 270.919 46.15C270.919 42.8367 271.525 39.78 272.739 36.98C273.952 34.18 275.819 31.9167 278.339 30.19C280.859 28.4633 283.962 27.6 287.649 27.6C291.102 27.6 294.089 28.4167 296.609 30.05C299.129 31.6367 301.042 33.7833 302.349 36.49C303.655 39.15 304.309 42.0667 304.309 45.24C304.309 46.1267 304.005 46.8733 303.399 47.48C302.839 48.0867 302.069 48.39 301.089 48.39H277.359C277.732 51.6567 278.945 54.2 280.999 56.02C283.052 57.84 285.922 58.75 289.609 58.75C291.569 58.75 293.272 58.5633 294.719 58.19C296.212 57.8167 297.659 57.28 299.059 56.58C299.432 56.3933 299.852 56.3 300.319 56.3C301.065 56.3 301.719 56.5567 302.279 57.07C302.839 57.5833 303.119 58.2367 303.119 59.03C303.119 60.0567 302.512 60.92 301.299 61.62C299.479 62.6467 297.682 63.4167 295.909 63.93C294.135 64.4433 291.849 64.7 289.049 64.7ZM298.009 43.21C297.869 40.9233 297.262 39.01 296.189 37.47C295.162 35.93 293.879 34.81 292.339 34.11C290.799 33.3633 289.235 32.99 287.649 32.99C286.062 32.99 284.499 33.3633 282.959 34.11C281.419 34.81 280.135 35.93 279.109 37.47C278.082 39.01 277.499 40.9233 277.359 43.21H298.009Z" fill="black"/>
<path d="M80.65 141.75C80.05 141.75 79.5333 141.533 79.1 141.1C78.7 140.667 78.5 140.15 78.5 139.55C78.5 139.283 78.55 139.017 78.65 138.75L81.9 130.4L72.5 107.5C72.3667 107.167 72.3 106.85 72.3 106.55C72.3 105.917 72.5167 105.383 72.95 104.95C73.3833 104.483 73.9167 104.25 74.55 104.25C75.0167 104.25 75.4333 104.383 75.8 104.65C76.2 104.917 76.4833 105.25 76.65 105.65L84.35 124.75L92.2 105.75C92.6333 104.75 93.3333 104.25 94.3 104.25C94.9333 104.25 95.4667 104.483 95.9 104.95C96.3333 105.383 96.55 105.917 96.55 106.55C96.55 106.85 96.5 107.133 96.4 107.4L82.75 140.2C82.2833 141.233 81.5833 141.75 80.65 141.75ZM112.714 130.5C110.147 130.5 107.897 129.95 105.964 128.85C104.03 127.75 102.53 126.2 101.464 124.2C100.43 122.167 99.9137 119.85 99.9137 117.25C99.9137 114.65 100.43 112.35 101.464 110.35C102.53 108.317 104.03 106.75 105.964 105.65C107.897 104.55 110.147 104 112.714 104C115.247 104 117.48 104.55 119.414 105.65C121.347 106.75 122.847 108.317 123.914 110.35C124.98 112.35 125.514 114.65 125.514 117.25C125.514 119.85 124.98 122.167 123.914 124.2C122.847 126.2 121.347 127.75 119.414 128.85C117.48 129.95 115.247 130.5 112.714 130.5ZM112.714 126.35C114.08 126.35 115.38 126.033 116.614 125.4C117.88 124.767 118.914 123.767 119.714 122.4C120.547 121.033 120.964 119.3 120.964 117.2C120.964 115.133 120.547 113.417 119.714 112.05C118.914 110.683 117.88 109.7 116.614 109.1C115.38 108.467 114.08 108.15 112.714 108.15C111.314 108.15 109.98 108.467 108.714 109.1C107.48 109.7 106.464 110.683 105.664 112.05C104.864 113.417 104.464 115.133 104.464 117.2C104.464 119.3 104.864 121.033 105.664 122.4C106.464 123.767 107.48 124.767 108.714 125.4C109.98 126.033 111.314 126.35 112.714 126.35ZM140.584 130.5C138.75 130.5 137.15 130.067 135.784 129.2C134.45 128.333 133.417 127.15 132.684 125.65C131.984 124.15 131.634 122.5 131.634 120.7V106.5C131.634 105.867 131.85 105.333 132.284 104.9C132.75 104.467 133.3 104.25 133.934 104.25C134.567 104.25 135.1 104.467 135.534 104.9C135.967 105.333 136.184 105.867 136.184 106.5V120.2C136.184 124.267 138.017 126.3 141.684 126.3C143.35 126.3 144.834 125.867 146.134 125C147.467 124.133 148.717 122.967 149.884 121.5V106.5C149.884 105.867 150.1 105.333 150.534 104.9C151 104.467 151.55 104.25 152.184 104.25C152.817 104.25 153.35 104.467 153.784 104.9C154.217 105.333 154.434 105.867 154.434 106.5V127.95C154.434 128.583 154.217 129.133 153.784 129.6C153.35 130.033 152.817 130.25 152.184 130.25C151.55 130.25 151 130.033 150.534 129.6C150.1 129.133 149.884 128.583 149.884 127.95V125.9C148.617 127.3 147.25 128.417 145.784 129.25C144.317 130.083 142.584 130.5 140.584 130.5ZM164.602 130.25C163.969 130.25 163.436 130.033 163.002 129.6C162.569 129.167 162.352 128.633 162.352 128V106.55C162.352 105.917 162.569 105.383 163.002 104.95C163.436 104.483 163.969 104.25 164.602 104.25C165.236 104.25 165.769 104.483 166.202 104.95C166.669 105.383 166.902 105.917 166.902 106.55V108.7C169.236 105.567 171.852 104 174.752 104H175.002C175.636 104 176.152 104.217 176.552 104.65C176.986 105.083 177.202 105.617 177.202 106.25C177.202 106.883 176.986 107.4 176.552 107.8C176.119 108.2 175.569 108.4 174.902 108.4H174.652C173.052 108.4 171.586 108.8 170.252 109.6C168.919 110.367 167.802 111.433 166.902 112.8V128C166.902 128.633 166.669 129.167 166.202 129.6C165.769 130.033 165.236 130.25 164.602 130.25ZM207.581 130.5C204.315 130.5 201.465 129.233 199.031 126.7V128C199.031 128.633 198.798 129.167 198.331 129.6C197.898 130.033 197.365 130.25 196.731 130.25C196.098 130.25 195.565 130.033 195.131 129.6C194.698 129.167 194.481 128.633 194.481 128V95.55C194.481 94.9167 194.698 94.3833 195.131 93.95C195.565 93.4833 196.098 93.25 196.731 93.25C197.398 93.25 197.948 93.4667 198.381 93.9C198.815 94.3333 199.031 94.8833 199.031 95.55V107.8C201.465 105.267 204.315 104 207.581 104C209.648 104 211.598 104.533 213.431 105.6C215.298 106.633 216.798 108.167 217.931 110.2C219.098 112.2 219.681 114.55 219.681 117.25C219.681 119.95 219.098 122.317 217.931 124.35C216.798 126.35 215.298 127.883 213.431 128.95C211.598 129.983 209.648 130.5 207.581 130.5ZM206.931 126.25C209.398 126.25 211.381 125.467 212.881 123.9C214.381 122.333 215.131 120.117 215.131 117.25C215.131 114.383 214.381 112.167 212.881 110.6C211.381 109.033 209.398 108.25 206.931 108.25C205.398 108.25 203.948 108.6 202.581 109.3C201.248 109.967 200.065 110.867 199.031 112V122.5C200.065 123.633 201.248 124.55 202.581 125.25C203.948 125.917 205.398 126.25 206.931 126.25ZM234.724 130.5C232.891 130.5 231.291 130.067 229.924 129.2C228.591 128.333 227.558 127.15 226.824 125.65C226.124 124.15 225.774 122.5 225.774 120.7V106.5C225.774 105.867 225.991 105.333 226.424 104.9C226.891 104.467 227.441 104.25 228.074 104.25C228.708 104.25 229.241 104.467 229.674 104.9C230.108 105.333 230.324 105.867 230.324 106.5V120.2C230.324 124.267 232.158 126.3 235.824 126.3C237.491 126.3 238.974 125.867 240.274 125C241.608 124.133 242.858 122.967 244.024 121.5V106.5C244.024 105.867 244.241 105.333 244.674 104.9C245.141 104.467 245.691 104.25 246.324 104.25C246.958 104.25 247.491 104.467 247.924 104.9C248.358 105.333 248.574 105.867 248.574 106.5V127.95C248.574 128.583 248.358 129.133 247.924 129.6C247.491 130.033 246.958 130.25 246.324 130.25C245.691 130.25 245.141 130.033 244.674 129.6C244.241 129.133 244.024 128.583 244.024 127.95V125.9C242.758 127.3 241.391 128.417 239.924 129.25C238.458 130.083 236.724 130.5 234.724 130.5ZM267.043 130.5C264.976 130.5 263.01 129.983 261.143 128.95C259.31 127.883 257.81 126.35 256.643 124.35C255.51 122.317 254.943 119.95 254.943 117.25C254.943 114.55 255.51 112.2 256.643 110.2C257.81 108.167 259.31 106.633 261.143 105.6C263.01 104.533 264.976 104 267.043 104C270.31 104 273.16 105.267 275.593 107.8V95.55C275.593 94.8833 275.81 94.3333 276.243 93.9C276.71 93.4667 277.26 93.25 277.893 93.25C278.526 93.25 279.06 93.4833 279.493 93.95C279.926 94.3833 280.143 94.9167 280.143 95.55V128C280.143 128.633 279.926 129.167 279.493 129.6C279.06 130.033 278.526 130.25 277.893 130.25C277.26 130.25 276.71 130.033 276.243 129.6C275.81 129.167 275.593 128.633 275.593 128V126.7C273.16 129.233 270.31 130.5 267.043 130.5ZM267.693 126.25C269.226 126.25 270.66 125.917 271.993 125.25C273.36 124.55 274.56 123.633 275.593 122.5V112C274.56 110.867 273.36 109.967 271.993 109.3C270.66 108.6 269.226 108.25 267.693 108.25C265.226 108.25 263.243 109.033 261.743 110.6C260.243 112.167 259.493 114.383 259.493 117.25C259.493 120.117 260.243 122.333 261.743 123.9C263.243 125.467 265.226 126.25 267.693 126.25ZM299.936 142C298.003 142 296.053 141.75 294.086 141.25C292.119 140.75 290.503 140.133 289.236 139.4C288.636 139.033 288.336 138.45 288.336 137.65C288.336 137.117 288.519 136.633 288.886 136.2C289.286 135.8 289.769 135.6 290.336 135.6C290.603 135.6 290.903 135.667 291.236 135.8C293.769 137.067 296.519 137.7 299.486 137.7C304.586 137.7 307.136 134.983 307.136 129.55V126.2C304.769 128.733 301.919 130 298.586 130C296.619 130 294.703 129.517 292.836 128.55C291.003 127.55 289.486 126.083 288.286 124.15C287.086 122.183 286.486 119.8 286.486 117C286.486 114.2 287.086 111.833 288.286 109.9C289.486 107.933 291.003 106.467 292.836 105.5C294.703 104.5 296.619 104 298.586 104C301.919 104 304.769 105.267 307.136 107.8V106.55C307.136 105.917 307.353 105.383 307.786 104.95C308.219 104.483 308.753 104.25 309.386 104.25C310.019 104.25 310.553 104.483 310.986 104.95C311.453 105.383 311.686 105.917 311.686 106.55V128.9C311.686 133.1 310.669 136.333 308.636 138.6C306.603 140.867 303.703 142 299.936 142ZM299.536 125.85C301.103 125.85 302.486 125.517 303.686 124.85C304.886 124.183 306.036 123.283 307.136 122.15V111.85C306.036 110.717 304.886 109.817 303.686 109.15C302.486 108.483 301.103 108.15 299.536 108.15C297.036 108.15 294.986 108.917 293.386 110.45C291.819 111.95 291.036 114.133 291.036 117C291.036 119.867 291.819 122.067 293.386 123.6C294.986 125.1 297.036 125.85 299.536 125.85ZM330.979 130.5C326.912 130.5 323.729 129.35 321.429 127.05C319.162 124.717 318.029 121.45 318.029 117.25C318.029 114.883 318.462 112.7 319.329 110.7C320.196 108.7 321.529 107.083 323.329 105.85C325.129 104.617 327.346 104 329.979 104C332.446 104 334.579 104.583 336.379 105.75C338.179 106.883 339.546 108.417 340.479 110.35C341.412 112.25 341.879 114.333 341.879 116.6C341.879 117.233 341.662 117.767 341.229 118.2C340.829 118.633 340.279 118.85 339.579 118.85H322.629C322.896 121.183 323.762 123 325.229 124.3C326.696 125.6 328.746 126.25 331.379 126.25C332.779 126.25 333.996 126.117 335.029 125.85C336.096 125.583 337.129 125.2 338.129 124.7C338.396 124.567 338.696 124.5 339.029 124.5C339.562 124.5 340.029 124.683 340.429 125.05C340.829 125.417 341.029 125.883 341.029 126.45C341.029 127.183 340.596 127.8 339.729 128.3C338.429 129.033 337.146 129.583 335.879 129.95C334.612 130.317 332.979 130.5 330.979 130.5ZM337.379 115.15C337.279 113.517 336.846 112.15 336.079 111.05C335.346 109.95 334.429 109.15 333.329 108.65C332.229 108.117 331.112 107.85 329.979 107.85C328.846 107.85 327.729 108.117 326.629 108.65C325.529 109.15 324.612 109.95 323.879 111.05C323.146 112.15 322.729 113.517 322.629 115.15H337.379ZM356.699 130.5C351.833 130.5 349.399 128.3 349.399 123.9V108.4H345.849C345.583 108.4 345.349 108.317 345.149 108.15C344.983 107.95 344.899 107.717 344.899 107.45C344.899 107.117 345.049 106.833 345.349 106.6L352.149 99.95C352.449 99.65 352.733 99.5 352.999 99.5C353.266 99.5 353.483 99.6 353.649 99.8C353.849 100 353.949 100.233 353.949 100.5V104.5H359.599C360.166 104.5 360.633 104.683 360.999 105.05C361.366 105.417 361.549 105.883 361.549 106.45C361.549 106.983 361.366 107.45 360.999 107.85C360.633 108.217 360.166 108.4 359.599 108.4H353.949V123.5C353.949 124.8 354.249 125.633 354.849 126C355.483 126.333 356.266 126.5 357.199 126.5C357.866 126.5 358.533 126.4 359.199 126.2C359.333 126.167 359.466 126.133 359.599 126.1C359.766 126.067 359.966 126.05 360.199 126.05C360.666 126.05 361.083 126.233 361.449 126.6C361.816 126.933 361.999 127.35 361.999 127.85C361.999 128.617 361.616 129.2 360.849 129.6C359.549 130.2 358.166 130.5 356.699 130.5ZM370.091 120.35C369.591 120.35 369.191 120.217 368.891 119.95C368.591 119.683 368.424 119.333 368.391 118.9L367.491 102.4V97.45C367.491 96.7167 367.741 96.1 368.241 95.6C368.741 95.1 369.358 94.85 370.091 94.85C370.824 94.85 371.424 95.1 371.891 95.6C372.391 96.1 372.641 96.7167 372.641 97.45V102.4L371.741 118.9C371.708 119.333 371.541 119.683 371.241 119.95C370.974 120.217 370.591 120.35 370.091 120.35ZM370.091 130.2C369.291 130.2 368.591 129.917 367.991 129.35C367.424 128.75 367.141 128.033 367.141 127.2C367.141 126.4 367.424 125.717 367.991 125.15C368.591 124.55 369.291 124.25 370.091 124.25C370.924 124.25 371.624 124.55 372.191 125.15C372.791 125.717 373.091 126.4 373.091 127.2C373.091 128.033 372.791 128.75 372.191 129.35C371.624 129.917 370.924 130.2 370.091 130.2Z" fill="black"/>
<g clip-path="url(#clip0)">
<path d="M345.083 65.0533C333.459 65.0533 324 55.5951 324 43.9709C324 32.3466 333.459 22.8881 345.083 22.8881C349.125 22.8881 353.058 24.0399 356.456 26.221C357.123 26.6505 357.318 27.5398 356.889 28.2087C356.458 28.8776 355.57 29.0709 354.901 28.6417C351.969 26.7575 348.573 25.763 345.083 25.763C335.043 25.763 326.875 33.9315 326.875 43.9709C326.875 54.0099 335.043 62.1784 345.083 62.1784C355.122 62.1784 363.29 54.0099 363.29 43.9709C363.29 43.3707 363.262 42.7766 363.206 42.1923C363.13 41.4006 363.708 40.699 364.498 40.6225C365.291 40.5495 365.991 41.1247 366.068 41.9143C366.133 42.591 366.165 43.277 366.165 43.9709C366.165 55.5951 356.707 65.0533 345.083 65.0533V65.0533Z" fill="black"/>
<path d="M347.478 48.7622C347.111 48.7622 346.742 48.6222 346.463 48.3407L337.838 39.716C337.276 39.1541 337.276 38.2438 337.838 37.6823C338.4 37.1208 339.31 37.1208 339.871 37.6823L347.48 45.2914L367.545 25.2263C368.107 24.6648 369.017 24.6648 369.579 25.2263C370.14 25.7878 370.14 26.6982 369.579 27.2597L348.496 48.3425C348.214 48.6222 347.846 48.7622 347.478 48.7622V48.7622Z" fill="black"/>
</g>
<defs>
<clipPath id="clip0">
<rect x="324" y="21" width="46" height="46" fill="white"/>
</clipPath>
</defs>
</svg>
