<svg width="698" height="520" viewBox="0 0 698 520" fill="none" xmlns="http://www.w3.org/2000/svg">
<path d="M503.177 490.219H77.9888V492.024H503.177V490.219Z" fill="#3F3D56"/>
<path d="M303.475 241.853C303.475 241.853 294.451 282.452 312.498 275.235C330.545 268.017 319.717 240.049 319.717 240.049L303.475 241.853Z" fill="#FFB9B9"/>
<path d="M472.215 255.386C472.215 255.386 493.872 281.55 480.336 286.963C466.801 292.376 459.582 262.604 461.387 259.897C463.191 257.191 472.215 255.386 472.215 255.386Z" fill="#FFB9B9"/>
<path d="M420.781 70.4343C435.731 70.4343 447.851 58.3164 447.851 43.3682C447.851 28.42 435.731 16.3021 420.781 16.3021C405.83 16.3021 393.71 28.42 393.71 43.3682C393.71 58.3164 405.83 70.4343 420.781 70.4343Z" fill="#FFB9B9"/>
<path d="M400.478 53.7439L396.869 81.712L426.646 92.5381L432.963 60.961L400.478 53.7439Z" fill="#FFB9B9"/>
<path d="M417.171 81.2608C417.171 81.2608 401.874 73.7102 398.694 67.5612L391.905 74.0431C391.905 74.0431 343.178 69.5321 335.959 93.8916C328.74 118.251 335.057 206.667 335.057 206.667C335.057 206.667 325.131 246.364 327.838 247.266C330.545 248.168 363.932 264.408 410.855 255.386C410.855 255.386 431.609 251.777 435.218 254.484C438.828 257.19 433.414 211.178 433.414 211.178C433.414 211.178 469.508 129.98 463.191 120.055C456.875 110.131 428.902 89.3806 428.902 89.3806L430.707 79.4563C430.707 79.4563 418.074 84.8696 417.171 81.2608Z" fill="#CFCCE0"/>
<path d="M343.178 87.5762C343.178 87.5762 326.935 95.696 324.228 108.327C321.521 120.958 296.255 225.613 298.962 231.929C301.669 238.244 300.767 246.364 300.767 246.364L324.228 243.657C324.228 243.657 319.717 237.342 322.424 234.635C325.131 231.929 327.838 222.907 326.033 219.298C324.228 215.689 322.424 222.005 332.35 210.276C342.276 198.547 364.834 91.185 343.178 87.5762Z" fill="#CFCCE0"/>
<path d="M457.777 118.251C457.777 118.251 465.447 118.702 467.252 131.333C469.057 143.964 472.215 222.005 472.215 222.005C472.215 222.005 483.946 247.266 479.434 250.875C474.922 254.484 477.629 259.897 477.629 259.897L461.387 264.408L426.195 209.374L457.777 118.251Z" fill="#CFCCE0"/>
<path d="M330.545 243.657C330.545 243.657 325.131 244.56 325.131 264.408C325.131 284.257 315.205 345.606 321.521 355.531C327.838 365.455 328.74 454.773 328.74 454.773C328.74 454.773 345.885 461.991 360.323 438.533L362.127 425.903L365.737 364.553L380.175 287.865L400.026 372.673C400.026 372.673 397.319 474.622 407.245 474.622C417.171 474.622 436.121 466.502 436.121 466.502C436.121 466.502 440.632 457.48 438.828 452.969C437.023 448.458 435.218 449.36 437.023 445.751C438.828 442.142 441.535 348.313 441.535 348.313C441.535 348.313 437.925 251.777 433.414 249.071C428.902 246.364 330.545 243.657 330.545 243.657Z" fill="#2F2E41"/>
<path d="M330.545 451.164L316.107 466.502C316.107 466.502 289.939 490.861 312.498 491.763C335.057 492.666 347.69 477.328 347.69 475.524C347.69 473.719 348.592 467.404 354.909 467.404C361.225 467.404 376.565 452.067 372.956 445.751C369.346 439.436 358.518 436.729 358.518 436.729L330.545 451.164Z" fill="#2F2E41"/>
<path d="M408.148 471.013C408.148 471.013 397.32 492.666 403.636 497.177C409.953 501.688 411.757 503.492 411.757 503.492C411.757 503.492 417.171 502.59 416.269 510.71C415.367 518.83 448.754 523.341 450.559 517.025C452.363 510.71 451.461 498.079 447.852 494.47C444.242 490.861 433.414 465.6 433.414 465.6C433.414 465.6 421.683 452.066 408.148 471.013Z" fill="#2F2E41"/>
<path d="M448.101 21.6349L453.201 20.9106C453.201 20.9106 446.102 7.84634 432.362 5.47412L437.185 2.21931C437.185 2.21931 428.804 -3.76932 417.972 3.92832C412.278 7.97478 405.667 12.7512 400.804 18.7632L395.829 17.5477L396.788 22.6258L388.404 25.4209L396.064 26.4225C395.007 28.8169 394.314 31.3555 394.008 33.9545C393.711 36.5566 394.437 39.1723 396.032 41.2495C396.032 41.2495 404.707 30.735 405.161 28.8757L404.025 33.5239C404.025 33.5239 409.693 30.4755 410.375 27.6866L412.113 31.5595L414.63 26.7559L429.004 35.6868L427.493 30.8843L436.865 34.652L434.314 28.6102C434.314 28.6102 443.816 37.3357 442.989 42.5521C442.161 47.7683 444.19 53.3985 444.19 53.3985C444.19 53.3985 458.643 31.5996 448.101 21.6349Z" fill="#2F2E41"/>
<path d="M698 328.293H553.495V330.022H698V328.293Z" fill="#3F3D56"/>
<path d="M157.851 461.505H123.018V496.331H157.851V461.505Z" fill="#CFCCE0"/>
<path d="M153.268 491.749H116.602V455.089H153.268V491.749ZM118.435 489.916H151.434V456.922H118.435L118.435 489.916Z" fill="#3F3D56"/>
<path d="M195.96 157.198L173.917 165.722L182.147 186.999L204.191 178.475L195.96 157.198Z" fill="#F2F2F2"/>
<path d="M200.207 176.797L177.003 185.769L168.339 163.372L191.543 154.4L200.207 176.797ZM177.73 184.201L198.614 176.125L190.816 155.968L169.933 164.044L177.73 184.201Z" fill="#3F3D56"/>
<path d="M601.02 416.581L593.336 394.233L571.759 401.65L579.443 423.997L601.02 416.581Z" fill="#F2F2F2"/>
<path d="M581.271 420.081L573.183 396.558L595.895 388.75L603.984 412.274L581.271 420.081ZM574.723 397.344L582.003 418.515L602.444 411.488L595.164 390.317L574.723 397.344Z" fill="#3F3D56"/>
<path d="M109.595 305.491C122.519 305.768 132.8 315.132 132.8 315.132C132.8 315.132 122.127 324.047 109.203 323.77C96.2786 323.493 85.9976 314.128 85.9976 314.128C85.9976 314.128 96.6708 305.214 109.595 305.491Z" fill="#6C63FF"/>
<path d="M44.6194 261.381C56.2958 266.928 69.6849 263.167 69.6849 263.167C69.6849 263.167 64.1428 250.413 52.4664 244.867C40.79 239.321 27.4009 243.082 27.4009 243.082C27.4009 243.082 32.943 255.835 44.6194 261.381Z" fill="#6C63FF"/>
<path d="M45.806 255.87C58.6795 254.693 69.9476 262.844 69.9476 262.844C69.9476 262.844 60.3437 272.901 47.4702 274.077C34.5967 275.254 23.3286 267.103 23.3286 267.103C23.3286 267.103 32.9325 257.046 45.806 255.87Z" fill="#3F3D56"/>
<path d="M92.9961 258.098C91.7621 270.964 99.8633 282.267 99.8633 282.267C99.8633 282.267 109.965 272.709 111.199 259.843C112.433 246.977 104.332 235.675 104.332 235.675C104.332 235.675 94.23 245.232 92.9961 258.098Z" fill="#3F3D56"/>
<path d="M153.624 337.005C146.872 348.026 149.195 361.736 149.195 361.736C149.195 361.736 162.466 357.576 169.218 346.554C175.97 335.533 173.647 321.823 173.647 321.823C173.647 321.823 160.376 325.983 153.624 337.005Z" fill="#3F3D56"/>
<path d="M134.035 456.838L135.019 456.173C131.55 451.141 129.656 445.191 129.578 439.08C129.605 430.14 133.997 421.872 138.244 413.876C139.033 412.392 139.818 410.912 140.574 409.434C143.747 403.405 146.275 397.058 148.118 390.5C154.706 366.022 148.219 337.143 130.768 313.249C116.923 294.293 96.2858 277.717 67.6761 262.575L67.1206 263.624C95.5673 278.68 116.073 295.142 129.809 313.949C147.05 337.556 153.466 366.058 146.971 390.191C145.15 396.67 142.652 402.938 139.517 408.893C138.764 410.366 137.981 411.84 137.195 413.319C132.881 421.443 128.419 429.843 128.39 439.076C128.469 445.426 130.434 451.608 134.035 456.838Z" fill="#3F3D56"/>
<path d="M11.2819 264.135C17.5127 264.135 22.5637 259.085 22.5637 252.855C22.5637 246.625 17.5127 241.575 11.2819 241.575C5.05106 241.575 0 246.625 0 252.855C0 259.085 5.05106 264.135 11.2819 264.135Z" fill="#3F3D56"/>
<path d="M625.459 319.483L480.239 267.335L506.165 195.161L596.586 172.99L651.386 247.31L625.459 319.483Z" fill="#2F2E41"/>
<path d="M607.867 305.172L499.343 263.81C527.516 226.079 540.115 199.464 540.124 157.583L648.648 198.944C623.435 234.752 612.892 261.67 607.867 305.172Z" fill="#F2F2F2"/>
<path d="M616.409 204.604L560.186 183.176L559.189 185.791L615.412 207.219L616.409 204.604Z" fill="#3F3D56"/>
<path d="M612.421 215.063L556.198 193.634L555.201 196.249L611.425 217.677L612.421 215.063Z" fill="#3F3D56"/>
<path d="M608.434 225.521L552.211 204.093L551.214 206.707L607.437 228.136L608.434 225.521Z" fill="#3F3D56"/>
<path d="M604.447 235.979L548.224 214.551L547.227 217.166L603.45 238.594L604.447 235.979Z" fill="#3F3D56"/>
<path d="M600.459 246.438L544.236 225.01L543.239 227.624L599.462 249.052L600.459 246.438Z" fill="#3F3D56"/>
<path d="M596.472 256.896L540.249 235.468L539.252 238.082L595.475 259.511L596.472 256.896Z" fill="#3F3D56"/>
<path d="M592.485 267.354L536.262 245.926L535.265 248.541L591.488 269.969L592.485 267.354Z" fill="#3F3D56"/>
<path d="M588.498 277.813L532.274 256.384L531.278 258.999L587.501 280.427L588.498 277.813Z" fill="#3F3D56"/>
<path d="M622.104 328.823L476.884 276.675L506.165 195.161L567.49 252.652L651.386 247.31L622.104 328.823Z" fill="#3F3D56"/>
<path d="M548.316 303.139L475.906 277.136L493.55 228.018L494.989 228.534L477.863 276.213L548.833 301.699L548.316 303.139Z" fill="#6C63FF"/>
<path d="M522.577 250.903L501.346 243.279L498.296 251.77L519.527 259.394L522.577 250.903Z" fill="#6C63FF"/>
<path d="M282.528 490.861L168.869 490.801L169.761 427.003L226.246 452.387L283.42 428.592L282.528 490.861Z" fill="#3F3D56"/>
<path d="M194.535 461.914L177.918 461.681L177.826 468.327L194.442 468.559L194.535 461.914Z" fill="#6C63FF"/>
<path d="M283.8 428.505L226.35 457.789L169.462 428.505V426.816H283.8V428.505Z" fill="#6C63FF"/>
<path d="M614.07 187.033C615.428 183.471 608.533 177.535 598.669 173.776C588.804 170.016 579.707 169.856 578.349 173.418C576.991 176.981 583.886 182.916 593.75 186.676C603.615 190.435 612.712 190.595 614.07 187.033Z" fill="#6C63FF"/>
<path d="M629.68 78.3965C626.037 77.2638 622.206 76.8597 618.407 77.2072C614.607 77.5548 610.913 78.6472 607.536 80.4221C604.159 82.1969 601.164 84.6195 598.723 87.5515C596.282 90.4835 594.443 93.8675 593.31 97.5102C588.546 112.83 601.53 168.913 601.53 168.913C601.53 168.913 644.033 130.081 648.797 114.761C651.085 107.404 650.357 99.4397 646.771 92.6201C643.186 85.8004 637.038 80.6841 629.68 78.3965ZM616.967 119.275C614.368 118.467 612.067 116.906 610.355 114.791C608.643 112.675 607.596 110.099 607.348 107.389C607.1 104.679 607.662 101.956 608.962 99.565C610.261 97.1738 612.241 95.2217 614.65 93.9555C617.06 92.6892 619.791 92.1658 622.498 92.4514C625.205 92.7369 627.766 93.8186 629.858 95.5597C631.95 97.3007 633.479 99.623 634.251 102.233C635.023 104.842 635.004 107.622 634.195 110.221C633.659 111.947 632.787 113.55 631.631 114.938C630.475 116.327 629.057 117.475 627.457 118.316C625.857 119.156 624.107 119.674 622.307 119.838C620.508 120.003 618.693 119.812 616.967 119.275Z" fill="#6C63FF"/>
</svg>
