<svg width="57" height="57" viewBox="0 0 57 57" fill="none" xmlns="http://www.w3.org/2000/svg">
<g clip-path="url(#clip0)">
<path d="M7.32952 50.372H41.0347L39.425 45.1598C39.6637 45.3678 53.2342 57 53.2342 57V6.11959C53.0734 2.95685 50.3504 0.269226 46.9749 0.269226L7.34133 0.276317C3.96822 0.276317 1.23096 2.96867 1.23096 6.13141V44.5192C1.23096 47.8545 3.96349 50.372 7.32952 50.372ZM32.2627 13.7026L32.1847 13.731L32.2131 13.7026H32.2627ZM14.2247 16.7022C18.5575 13.549 22.5735 13.7002 22.5735 13.7002L22.8974 14.0193C17.5954 15.284 15.1915 17.6525 15.1915 17.6525C15.4373 17.6005 26.1429 11.4239 39.1153 17.8085C39.1153 17.8085 36.7066 15.5936 31.7308 14.1754L32.1705 13.7428C32.8584 13.7451 36.4986 13.8728 40.3941 16.7211C40.3941 16.7211 44.7529 24.1671 44.7529 33.3149C44.6087 33.14 42.0488 37.253 35.4609 37.3948C35.4609 37.3948 34.3452 36.1325 33.551 35.031C37.4039 33.9248 38.8458 31.7123 38.8458 31.7123C31.3455 36.4351 24.7719 35.6976 16.9076 32.5065C16.8343 32.5065 16.8012 32.4734 16.7634 32.4356V32.4214C16.7256 32.3859 16.6925 32.3505 16.6192 32.3505H16.4774C15.9951 32.0337 15.6737 31.8777 15.6737 31.8777C15.6737 31.8777 17.1132 34.0902 20.8125 35.1965C19.841 36.3051 18.879 37.565 18.879 37.565C12.2935 37.409 9.89186 33.296 9.89186 33.296C9.89186 24.134 14.2247 16.7022 14.2247 16.7022Z" fill="#6C63FF"/>
<path d="M32.6884 30.4571C34.3691 30.4571 35.7377 29.0388 35.7377 27.2896C35.7377 25.5522 34.3762 24.134 32.6884 24.134V24.1411C31.0149 24.1411 29.6439 25.5546 29.6392 27.3038C29.6392 29.0388 31.0078 30.4571 32.6884 30.4571Z" fill="#6C63FF"/>
<path d="M21.7724 30.4571C23.4531 30.4571 24.8217 29.0388 24.8217 27.2896C24.8217 25.5522 23.4625 24.134 21.7819 24.134L21.7724 24.1411C20.0918 24.1411 18.7231 25.5546 18.7231 27.3038C18.7231 29.0388 20.0918 30.4571 21.7724 30.4571Z" fill="#6C63FF"/>
</g>
<defs>
<clipPath id="clip0">
<rect x="0.0961914" y="0.269226" width="56.7308" height="56.7308" fill="white"/>
</clipPath>
</defs>
</svg>
