<svg width="53" height="57" viewBox="0 0 53 57" fill="none" xmlns="http://www.w3.org/2000/svg">
<path fill-rule="evenodd" clip-rule="evenodd" d="M6.23332 50.1027H39.9385L38.3288 44.8906C38.5675 45.0986 52.138 56.7308 52.138 56.7308V5.85036C51.9772 2.68762 49.2542 0 45.8787 0L6.24514 0.00709135C2.87203 0.00709135 0.134766 2.69944 0.134766 5.86218V44.25C0.134766 47.5853 2.8673 50.1027 6.23332 50.1027ZM31.1665 13.4334L31.0885 13.4617L31.1169 13.4334H31.1665ZM13.1285 16.433C17.4613 13.2797 21.4774 13.431 21.4774 13.431L21.8012 13.7501C16.4992 15.0147 14.0953 17.3833 14.0953 17.3833C14.112 17.3797 14.1776 17.3476 14.2893 17.2929C15.8135 16.5464 25.9323 11.5906 38.0191 17.5393C38.0191 17.5393 35.6104 15.3244 30.6346 13.9061L31.0743 13.4736C31.7622 13.4759 35.4024 13.6036 39.2979 16.4519C39.2979 16.4519 43.6567 23.8978 43.6567 33.0457C43.6307 33.0141 43.5258 33.1224 43.3326 33.322C42.4562 34.2271 39.7625 37.0094 34.3647 37.1256C34.3647 37.1256 33.249 35.8633 32.4548 34.7618C36.3077 33.6555 37.7496 31.443 37.7496 31.443C30.2494 36.1659 23.6757 35.4284 15.8114 32.2373C15.7381 32.2373 15.705 32.2042 15.6672 32.1663V32.1522L15.6607 32.1461C15.6254 32.1128 15.5921 32.0812 15.523 32.0812H15.3812C14.8989 31.7645 14.5775 31.6085 14.5775 31.6085C14.5775 31.6085 16.017 33.821 19.7163 34.9272C18.7448 36.0359 17.7828 37.2958 17.7828 37.2958C11.1973 37.1397 8.79566 33.0268 8.79566 33.0268C8.79566 23.8647 13.1285 16.433 13.1285 16.433ZM31.5922 30.1879C33.2729 30.1879 34.6415 28.7696 34.6415 27.0204C34.6415 25.283 33.28 23.8647 31.5922 23.8647V23.8718C29.9187 23.8718 28.5477 25.2854 28.543 27.0346C28.543 28.7696 29.9116 30.1879 31.5922 30.1879ZM23.7255 27.0204C23.7255 28.7696 22.3569 30.1879 20.6762 30.1879C18.9956 30.1879 17.627 28.7696 17.627 27.0346C17.627 25.2854 18.9956 23.8718 20.6762 23.8718L20.6857 23.8647C22.3663 23.8647 23.7255 25.283 23.7255 27.0204Z" fill="white"/>
</svg>
