<svg width="58" height="57" viewBox="0 0 58 57" fill="none" xmlns="http://www.w3.org/2000/svg">
<path d="M28.978 0C22.2296 0.0331383 15.7116 2.50996 10.5841 6.98963C5.45661 11.4693 2.05227 17.6612 0.976988 24.4633C-0.0982922 31.2654 1.22525 38.2364 4.71206 44.1356C8.19886 50.0348 13.6227 54.4794 20.0183 56.6785C21.4364 56.95 21.9564 56.045 21.9564 55.2708C21.9564 54.5811 21.9347 52.7471 21.9111 50.3279C14.0228 52.0694 12.3604 46.4247 12.3604 46.4247C11.8421 44.6677 10.724 43.1587 9.20904 42.1715C6.62687 40.3737 9.406 40.4059 9.406 40.4059C10.3061 40.5337 11.1656 40.8705 11.9185 41.3902C12.6713 41.91 13.2975 42.5989 13.749 43.4042C14.1305 44.1215 14.6481 44.7539 15.2716 45.2646C15.8951 45.7753 16.612 46.154 17.3805 46.3787C18.149 46.6034 18.9536 46.6694 19.7474 46.573C20.5412 46.4767 21.3082 46.2198 22.0036 45.8174C22.1308 44.3416 22.7716 42.9612 23.8098 41.9262C17.507 41.1902 10.8891 38.7087 10.8891 27.558C10.8466 24.6694 11.893 21.8745 13.812 19.7515C12.9449 17.2466 13.0442 14.4986 14.0897 12.0657C14.0897 12.0657 16.473 11.2854 21.8894 15.0419C24.2041 14.3973 26.5926 14.07 28.9918 14.0686C31.3918 14.0693 33.7808 14.4 36.0943 15.0519C41.5008 11.2854 43.8841 12.0757 43.8841 12.0757C44.9312 14.5098 45.034 17.2591 44.1716 19.7676C46.0878 21.8919 47.1313 24.6866 47.0867 27.5741C47.0867 38.7409 40.4609 41.1942 34.1345 41.9182C34.8136 42.6228 35.3374 43.4674 35.671 44.3955C36.0046 45.3235 36.1401 46.3136 36.0686 47.2994C36.0686 51.1906 36.0352 54.3257 36.0352 55.2748C36.0352 56.0551 36.5453 56.96 37.9851 56.6825C44.38 54.4775 49.8013 50.0274 53.284 44.1241C56.7666 38.2209 58.0848 31.2475 57.0039 24.445C55.9229 17.6425 52.513 11.4522 47.381 6.97592C42.249 2.49962 35.7278 0.027664 28.978 0Z" fill="#6C63FF"/>
</svg>
