<svg width="37" height="41" viewBox="0 0 37 41" fill="none" xmlns="http://www.w3.org/2000/svg">
<path d="M0.00399193 1.35726L2.72987 35.3997C2.7708 35.9109 3.12526 36.3468 3.62599 36.5018L17.9696 40.9412C18.2233 41.0196 18.4956 41.0196 18.7493 40.9412L33.0929 36.5018C33.5937 36.3468 33.9481 35.9109 33.9891 35.3997L36.7149 1.35726C36.7736 0.625369 36.181 0 35.4291 0H1.28998C0.538005 0 -0.0545366 0.625369 0.00399193 1.35726ZM29.7246 11.9195H11.9595L12.4956 16.7458H29.3382L28.2364 30.5047L18.3595 33.5616L8.4826 30.5047L7.90699 23.3165H13.0912V26.8424L18.498 28.259L23.8726 26.8424L24.2896 21.2231H7.73934L6.64055 7.50018H30.0784L29.7246 11.9195Z" fill="white"/>
</svg>
