<svg width="57" height="57" viewBox="0 0 57 57" fill="none" xmlns="http://www.w3.org/2000/svg">
<g clip-path="url(#clip0)">
<path d="M52.5327 5.81888e-05H4.18673C3.64341 -0.0074379 3.10396 0.0923526 2.59928 0.293711C2.0946 0.49507 1.63461 0.794039 1.24568 1.17349C0.856745 1.55293 0.546511 2.0054 0.332754 2.50495C0.118997 3.00451 0.00591937 3.54134 0 4.08467L0 52.6349C0.00592744 53.1787 0.118926 53.7161 0.332543 54.2163C0.54616 54.7165 0.856211 55.1697 1.24499 55.55C1.63377 55.9304 2.09367 56.2304 2.59841 56.433C3.10316 56.6356 3.64287 56.7368 4.18673 56.7308H52.5327C53.6321 56.7429 54.6915 56.3185 55.4785 55.5507C56.2655 54.7829 56.7158 53.7343 56.7308 52.6349V4.08467C56.7234 3.54081 56.6089 3.00373 56.3939 2.50411C56.1789 2.00448 55.8676 1.5521 55.4778 1.1728C55.088 0.793499 54.6272 0.494706 54.1219 0.293485C53.6166 0.0922638 53.0766 -0.00744303 52.5327 5.81888e-05ZM16.8263 48.346H8.4075V21.2741H16.8263V48.346ZM12.6169 17.5639C11.652 17.5639 10.7087 17.2778 9.90638 16.7417C9.10406 16.2056 8.47873 15.4436 8.10946 14.5521C7.74019 13.6606 7.64357 12.6796 7.83182 11.7332C8.02007 10.7868 8.48474 9.91751 9.16706 9.23519C9.84938 8.55287 10.7187 8.08821 11.6651 7.89996C12.6115 7.71171 13.5925 7.80832 14.484 8.17759C15.3755 8.54686 16.1374 9.17219 16.6735 9.97452C17.2096 10.7768 17.4958 11.7201 17.4958 12.6851C17.4958 13.979 16.9817 15.22 16.0668 16.1349C15.1518 17.0499 13.9109 17.5639 12.6169 17.5639ZM48.346 48.346H39.9271V35.1731C39.9271 32.0416 39.9271 28.0024 35.5588 28.0024C31.1906 28.0024 30.5098 31.4062 30.5098 34.9462V48.346H22.1023V21.2741H30.1694V24.9616H30.2829C31.0876 23.5822 32.251 22.4465 33.6494 21.6754C35.0479 20.9042 36.6292 20.5264 38.2252 20.582C46.7462 20.582 48.3233 26.187 48.3233 33.4826L48.346 48.346Z" fill="#6C63FF"/>
</g>
<defs>
<clipPath id="clip0">
<rect width="56.7308" height="56.7308" fill="white"/>
</clipPath>
</defs>
</svg>
