<svg width="136" height="24" viewBox="0 0 136 24" fill="none" xmlns="http://www.w3.org/2000/svg">
<path d="M11.376 14.896H5.016L3.336 19H0.576L8.304 0.808H8.472L16.2 19H12.984L11.376 14.896ZM10.44 12.496L8.256 6.976L6 12.496H10.44ZM25.2533 8.416C26.1973 8.416 26.9813 8.704 27.6053 9.28C28.2453 9.84 28.5733 10.568 28.5893 11.464V19H25.9013V12.424C25.8693 11.896 25.7093 11.48 25.4213 11.176C25.1493 10.872 24.7333 10.712 24.1733 10.696C23.3413 10.696 22.6533 11.056 22.1093 11.776C21.5813 12.48 21.3173 13.384 21.3173 14.488V19H18.6293V8.848H21.0533L21.2453 10.648C21.6133 9.944 22.1413 9.4 22.8293 9.016C23.5333 8.616 24.3413 8.416 25.2533 8.416ZM43.1173 0.279999V19H40.4293V17.632C39.3093 18.72 37.9813 19.264 36.4453 19.264C35.5013 19.264 34.6453 19.04 33.8773 18.592C33.1253 18.144 32.5333 17.504 32.1013 16.672C31.6693 15.84 31.4533 14.872 31.4533 13.768C31.4533 12.664 31.6773 11.704 32.1253 10.888C32.5893 10.072 33.2213 9.456 34.0213 9.04C34.8373 8.608 35.7573 8.392 36.7813 8.392C37.5173 8.392 38.2133 8.536 38.8693 8.824C39.5253 9.096 40.0533 9.472 40.4533 9.952V0.279999H43.1173ZM37.3093 16.984C38.0773 16.984 38.7333 16.792 39.2773 16.408C39.8213 16.024 40.2053 15.488 40.4293 14.8V12.64C40.2373 12.016 39.8533 11.504 39.2773 11.104C38.7173 10.704 38.0613 10.504 37.3093 10.504C36.7493 10.504 36.2293 10.648 35.7493 10.936C35.2693 11.208 34.8853 11.592 34.5973 12.088C34.3093 12.568 34.1653 13.112 34.1653 13.72C34.1653 14.328 34.3093 14.88 34.5973 15.376C34.8853 15.872 35.2693 16.264 35.7493 16.552C36.2293 16.84 36.7493 16.984 37.3093 16.984ZM49.4406 11.2C49.7126 10.656 50.0966 10.168 50.5926 9.736C51.0886 9.304 51.5926 8.976 52.1046 8.752C52.6326 8.512 53.0726 8.392 53.4246 8.392L53.3046 11.08C52.5686 11.016 51.9126 11.152 51.3366 11.488C50.7606 11.808 50.3126 12.256 49.9926 12.832C49.6726 13.392 49.5126 13.992 49.5126 14.632V19H46.8246V8.848H49.2486L49.4406 11.2ZM60.6268 16.96C61.3788 16.96 62.1388 16.696 62.9068 16.168L64.1308 18.16C63.5868 18.496 63.0028 18.768 62.3788 18.976C61.7548 19.168 61.1548 19.264 60.5788 19.264C59.4108 19.264 58.3948 19.032 57.5308 18.568C56.6828 18.104 56.0268 17.464 55.5628 16.648C55.1148 15.832 54.8908 14.896 54.8908 13.84C54.8908 12.848 55.1468 11.936 55.6588 11.104C56.1708 10.272 56.8668 9.616 57.7468 9.136C58.6268 8.64 59.5868 8.392 60.6268 8.392C62.0028 8.392 63.1468 8.8 64.0588 9.616C64.9708 10.416 65.5788 11.552 65.8828 13.024L58.0588 15.664C58.3308 16.08 58.6908 16.4 59.1388 16.624C59.5868 16.848 60.0828 16.96 60.6268 16.96ZM60.4108 10.504C59.5628 10.504 58.8668 10.8 58.3228 11.392C57.7948 11.984 57.5308 12.752 57.5308 13.696C57.5308 13.872 57.5388 14.008 57.5548 14.104L62.8828 12.208C62.6748 11.712 62.3708 11.304 61.9708 10.984C61.5708 10.664 61.0508 10.504 60.4108 10.504ZM79.1597 8.848V19H76.4717V17.536C76.1037 17.968 75.6077 18.368 74.9837 18.736C74.3597 19.088 73.6317 19.264 72.7997 19.264C71.8237 19.264 70.9517 19.064 70.1837 18.664C69.4157 18.248 68.8077 17.64 68.3597 16.84C67.9117 16.04 67.6877 15.072 67.6877 13.936C67.6877 12.832 67.9197 11.864 68.3837 11.032C68.8477 10.184 69.4637 9.536 70.2317 9.088C71.0157 8.624 71.8717 8.392 72.7997 8.392C74.4477 8.392 75.6797 9 76.4957 10.216L76.6877 8.848H79.1597ZM73.5437 17.056C74.2797 17.056 74.8957 16.872 75.3917 16.504C75.9037 16.12 76.2637 15.584 76.4717 14.896V12.688C76.2797 12.064 75.9037 11.56 75.3437 11.176C74.7997 10.792 74.1677 10.6 73.4477 10.6C72.5997 10.6 71.8797 10.904 71.2877 11.512C70.6957 12.104 70.3997 12.864 70.3997 13.792C70.3997 14.4 70.5437 14.952 70.8317 15.448C71.1197 15.944 71.5037 16.336 71.9837 16.624C72.4637 16.912 72.9837 17.056 73.5437 17.056ZM85.9194 19.216C85.1354 19.216 84.3914 19.08 83.6874 18.808C82.9994 18.52 82.4314 18.12 81.9834 17.608L83.1114 16.096C83.9594 16.928 84.8234 17.344 85.7034 17.344C86.1834 17.344 86.5754 17.256 86.8794 17.08C87.1994 16.888 87.3594 16.608 87.3594 16.24C87.3594 15.856 87.1994 15.568 86.8794 15.376C86.5594 15.184 86.1994 15.032 85.7994 14.92C85.4154 14.792 85.1674 14.712 85.0554 14.68C84.1754 14.408 83.5194 14.016 83.0874 13.504C82.6554 12.976 82.4394 12.36 82.4394 11.656C82.4394 11.096 82.5754 10.576 82.8474 10.096C83.1354 9.6 83.5594 9.2 84.1194 8.896C84.6954 8.592 85.3914 8.44 86.2074 8.44C86.9754 8.44 87.6394 8.528 88.1994 8.704C88.7754 8.88 89.3114 9.16 89.8074 9.544L88.7754 11.152C88.4874 10.88 88.1354 10.664 87.7194 10.504C87.3194 10.344 86.9514 10.264 86.6154 10.264C86.1994 10.264 85.8554 10.36 85.5834 10.552C85.3114 10.744 85.1754 10.992 85.1754 11.296C85.1594 11.664 85.2954 11.944 85.5834 12.136C85.8714 12.312 86.3354 12.504 86.9754 12.712C87.2474 12.792 87.4234 12.848 87.5034 12.88C88.3034 13.136 88.9274 13.496 89.3754 13.96C89.8234 14.408 90.0474 15 90.0474 15.736C90.0474 16.728 89.6874 17.56 88.9674 18.232C88.2634 18.888 87.2474 19.216 85.9194 19.216ZM115.467 19H112.659V11.56H104.067V19H101.259V1.528H104.067V8.896H112.659V1.528H115.467V19ZM128.787 10.096C129.251 10.576 129.603 11.136 129.843 11.776C130.083 12.4 130.203 13.08 130.203 13.816C130.203 14.84 129.971 15.768 129.507 16.6C129.043 17.416 128.379 18.064 127.515 18.544C126.667 19.024 125.683 19.264 124.563 19.264C123.363 19.264 122.323 19.008 121.443 18.496L120.387 19.696L119.091 18.496L120.075 17.368C119.275 16.424 118.875 15.24 118.875 13.816C118.875 12.808 119.115 11.888 119.595 11.056C120.091 10.224 120.771 9.576 121.635 9.112C122.499 8.632 123.483 8.392 124.587 8.392C125.643 8.392 126.571 8.6 127.371 9.016L128.307 7.96L129.675 9.088L128.787 10.096ZM121.587 13.84C121.587 14.4 121.691 14.888 121.899 15.304L125.763 10.864C125.363 10.688 124.947 10.6 124.515 10.6C123.683 10.6 122.987 10.92 122.427 11.56C121.867 12.184 121.587 12.944 121.587 13.84ZM124.515 17.056C125.379 17.056 126.083 16.752 126.627 16.144C127.187 15.536 127.467 14.768 127.467 13.84C127.467 13.168 127.323 12.584 127.035 12.088L123.051 16.648C123.499 16.92 123.987 17.056 124.515 17.056ZM131.265 22.24C132.241 21.44 132.729 20.328 132.729 18.904V8.848H135.417V19.048C135.417 20.248 135.209 21.232 134.793 22C134.393 22.784 133.737 23.416 132.825 23.896L131.265 22.24ZM132.561 5.224C132.561 4.824 132.721 4.488 133.041 4.216C133.361 3.928 133.721 3.784 134.121 3.784C134.505 3.784 134.849 3.928 135.153 4.216C135.473 4.488 135.633 4.824 135.633 5.224C135.633 5.624 135.473 5.96 135.153 6.232C134.849 6.504 134.505 6.64 134.121 6.64C133.721 6.64 133.361 6.504 133.041 6.232C132.721 5.96 132.561 5.624 132.561 5.224Z" fill="black"/>
</svg>
