<svg width="196" height="60" viewBox="0 0 196 60" fill="none" xmlns="http://www.w3.org/2000/svg">
<path d="M16.25 50V25.2H21.9L22.45 28.55C23.25 27.35 24.3 26.4 25.6 25.7C26.9333 24.9667 28.4667 24.6 30.2 24.6C34.0333 24.6 36.75 26.0833 38.35 29.05C39.25 27.6833 40.45 26.6 41.95 25.8C43.4833 25 45.15 24.6 46.95 24.6C50.1833 24.6 52.6667 25.5667 54.4 27.5C56.1333 29.4333 57 32.2667 57 36V50H50.6V36.6C50.6 34.4667 50.1833 32.8333 49.35 31.7C48.55 30.5667 47.3 30 45.6 30C43.8667 30 42.4667 30.6333 41.4 31.9C40.3667 33.1667 39.85 34.9333 39.85 37.2V50H33.45V36.6C33.45 34.4667 33.0333 32.8333 32.2 31.7C31.3667 30.5667 30.0833 30 28.35 30C26.65 30 25.2667 30.6333 24.2 31.9C23.1667 33.1667 22.65 34.9333 22.65 37.2V50H16.25ZM74.9762 50.6C72.5762 50.6 70.4095 50.05 68.4762 48.95C66.5762 47.85 65.0595 46.3333 63.9262 44.4C62.8262 42.4333 62.2762 40.1667 62.2762 37.6C62.2762 35.0333 62.8428 32.7833 63.9762 30.85C65.1095 28.8833 66.6262 27.35 68.5262 26.25C70.4595 25.15 72.6262 24.6 75.0262 24.6C77.3928 24.6 79.5262 25.15 81.4262 26.25C83.3595 27.35 84.8762 28.8833 85.9762 30.85C87.1095 32.7833 87.6762 35.0333 87.6762 37.6C87.6762 40.1667 87.1095 42.4333 85.9762 44.4C84.8762 46.3333 83.3595 47.85 81.4262 48.95C79.4928 50.05 77.3428 50.6 74.9762 50.6ZM74.9762 45.05C76.6428 45.05 78.0928 44.4333 79.3262 43.2C80.5595 41.9333 81.1762 40.0667 81.1762 37.6C81.1762 35.1333 80.5595 33.2833 79.3262 32.05C78.0928 30.7833 76.6595 30.15 75.0262 30.15C73.3262 30.15 71.8595 30.7833 70.6262 32.05C69.4262 33.2833 68.8262 35.1333 68.8262 37.6C68.8262 40.0667 69.4262 41.9333 70.6262 43.2C71.8595 44.4333 73.3095 45.05 74.9762 45.05ZM104.798 50.6C102.465 50.6 100.382 50.0333 98.5484 48.9C96.7151 47.7667 95.2651 46.2167 94.1984 44.25C93.1318 42.2833 92.5984 40.05 92.5984 37.55C92.5984 35.05 93.1318 32.8333 94.1984 30.9C95.2651 28.9333 96.7151 27.4 98.5484 26.3C100.382 25.1667 102.465 24.6 104.798 24.6C106.665 24.6 108.298 24.95 109.698 25.65C111.098 26.35 112.232 27.3333 113.098 28.6V14H119.498V50H113.798L113.098 46.45C112.298 47.55 111.232 48.5167 109.898 49.35C108.598 50.1833 106.898 50.6 104.798 50.6ZM106.148 45C108.215 45 109.898 44.3167 111.198 42.95C112.532 41.55 113.198 39.7667 113.198 37.6C113.198 35.4333 112.532 33.6667 111.198 32.3C109.898 30.9 108.215 30.2 106.148 30.2C104.115 30.2 102.432 30.8833 101.098 32.25C99.7651 33.6167 99.0984 35.3833 99.0984 37.55C99.0984 39.7167 99.7651 41.5 101.098 42.9C102.432 44.3 104.115 45 106.148 45ZM134.566 50.6C132.432 50.6 130.682 50.2667 129.316 49.6C127.949 48.9 126.932 47.9833 126.266 46.85C125.599 45.7167 125.266 44.4667 125.266 43.1C125.266 40.8 126.166 38.9333 127.966 37.5C129.766 36.0667 132.466 35.35 136.066 35.35H142.366V34.75C142.366 33.05 141.882 31.8 140.916 31C139.949 30.2 138.749 29.8 137.316 29.8C136.016 29.8 134.882 30.1167 133.916 30.75C132.949 31.35 132.349 32.25 132.116 33.45H125.866C126.032 31.65 126.632 30.0833 127.666 28.75C128.732 27.4167 130.099 26.4 131.766 25.7C133.432 24.9667 135.299 24.6 137.366 24.6C140.899 24.6 143.682 25.4833 145.716 27.25C147.749 29.0167 148.766 31.5167 148.766 34.75V50H143.316L142.716 46C141.982 47.3333 140.949 48.4333 139.616 49.3C138.316 50.1667 136.632 50.6 134.566 50.6ZM136.016 45.6C137.849 45.6 139.266 45 140.266 43.8C141.299 42.6 141.949 41.1167 142.216 39.35H136.766C135.066 39.35 133.849 39.6667 133.116 40.3C132.382 40.9 132.016 41.65 132.016 42.55C132.016 43.5167 132.382 44.2667 133.116 44.8C133.849 45.3333 134.816 45.6 136.016 45.6ZM154.873 50V14H161.273V50H154.873ZM178.063 50.6C175.863 50.6 173.929 50.25 172.263 49.55C170.596 48.8167 169.263 47.8167 168.263 46.55C167.263 45.2833 166.663 43.8167 166.463 42.15H172.913C173.113 43.1167 173.646 43.95 174.513 44.65C175.413 45.3167 176.563 45.65 177.963 45.65C179.363 45.65 180.379 45.3667 181.013 44.8C181.679 44.2333 182.013 43.5833 182.013 42.85C182.013 41.7833 181.546 41.0667 180.613 40.7C179.679 40.3 178.379 39.9167 176.713 39.55C175.646 39.3167 174.563 39.0333 173.463 38.7C172.363 38.3667 171.346 37.95 170.413 37.45C169.513 36.9167 168.779 36.25 168.213 35.45C167.646 34.6167 167.363 33.6 167.363 32.4C167.363 30.2 168.229 28.35 169.963 26.85C171.729 25.35 174.196 24.6 177.363 24.6C180.296 24.6 182.629 25.2833 184.363 26.65C186.129 28.0167 187.179 29.9 187.513 32.3H181.463C181.096 30.4667 179.713 29.55 177.313 29.55C176.113 29.55 175.179 29.7833 174.513 30.25C173.879 30.7167 173.563 31.3 173.563 32C173.563 32.7333 174.046 33.3167 175.013 33.75C175.979 34.1833 177.263 34.5833 178.863 34.95C180.596 35.35 182.179 35.8 183.613 36.3C185.079 36.7667 186.246 37.4833 187.113 38.45C187.979 39.3833 188.413 40.7333 188.413 42.5C188.446 44.0333 188.046 45.4167 187.213 46.65C186.379 47.8833 185.179 48.85 183.613 49.55C182.046 50.25 180.196 50.6 178.063 50.6Z" fill="white"/>
<rect y="8" width="6" height="33" fill="white"/>
<rect y="14" width="6" height="33" transform="rotate(-90 0 14)" fill="white"/>
</svg>
