<svg width="49" height="57" viewBox="0 0 49 57" fill="none" xmlns="http://www.w3.org/2000/svg">
<path d="M35.8587 24.6574C35.8587 24.6574 35.3944 20.6669 31.1259 20.6669C26.857 20.6669 23.9343 21.2235 23.9343 23.5901C23.9343 25.9567 32.2399 25.9567 35.3953 26.8845C38.5506 27.8123 41.3343 30.2252 39.9422 34.4941C38.5502 38.763 34.2813 39.2269 27.6925 39.2269C21.1038 39.2269 19.6186 33.7513 19.6186 31.6173H23.3305C23.3305 31.6173 22.8662 34.958 27.2278 35.5146C31.5894 36.0712 35.7599 36.3845 36.3222 33.0094C37.0646 28.5547 22.2165 30.7822 20.9171 26.4206C19.8196 22.7354 20.4528 17.8832 27.8771 17.1404C35.3013 16.3976 39.3844 19.6756 39.3844 24.5647L35.8587 24.6574Z" fill="white"/>
<path d="M0.00041306 42.0537L8.20682 46.7914C12.3301 49.172 17.4841 46.1963 17.4841 41.4352V33.1328V17.8533H14.1393V40.505C14.1393 43.105 11.3248 44.7304 9.07265 43.4298L3.34482 40.1231V15.9485L24.2804 3.86244L45.216 15.9485V40.1231L24.2804 52.2092L18.2495 48.7274L14.3112 50.3155L24.28 56.0712L48.5604 42.0525V14.0179L24.2804 0L0 14.0187V42.0537H0.00041306Z" fill="white"/>
</svg>
