<svg width="49" height="44" viewBox="0 0 49 44" fill="none" xmlns="http://www.w3.org/2000/svg">
<path fill-rule="evenodd" clip-rule="evenodd" d="M11.9164 14.8036C11.4487 14.938 10.9845 15.0842 10.5242 15.242C5.85326 16.8492 2.83491 19.3668 2.83491 21.9698C2.83491 24.6846 6.06055 27.339 11.0185 28.9808C11.2806 29.0676 11.5491 29.151 11.8228 29.2317C11.7252 29.6243 11.6381 30.0098 11.5634 30.3872C10.5846 35.3288 11.3384 39.3904 13.6581 40.7326C15.9042 42.0321 19.5342 40.7555 23.2098 37.5942C23.6094 37.2498 23.9992 36.8943 24.3789 36.5281C24.6804 36.8195 24.9814 37.0974 25.2813 37.3595C29.076 40.6748 32.9729 42.0503 35.2947 40.7121C37.5427 39.416 38.2492 35.6353 37.3446 30.8737C37.2458 30.3562 37.1325 29.8416 37.0049 29.3305C37.3977 29.2184 37.7876 29.0966 38.1743 28.9651C42.9436 27.3359 46.0825 24.6489 46.0825 21.9698C46.0825 19.3761 43.1583 16.8754 38.5797 15.2799C38.0679 15.1016 37.5329 14.934 36.979 14.7768C37.0977 14.3023 37.2043 13.8249 37.2987 13.3451C38.2474 8.49932 37.5798 4.62675 35.3259 3.32263C32.9754 1.96264 29.0607 3.42306 25.1552 6.88911C24.9123 7.10518 24.6734 7.32573 24.4386 7.55064C24.0881 7.2124 23.729 6.88306 23.3618 6.56294C19.6353 3.32167 15.9455 1.9657 13.6895 3.26619C11.3364 4.62216 10.6474 8.74132 11.7013 13.8545C11.7671 14.1722 11.8388 14.4886 11.9164 14.8036ZM12.326 27.4551C12.0787 27.3818 11.836 27.3063 11.5996 27.228C7.31898 25.8103 4.68229 23.6409 4.68229 21.9698C4.68229 20.4011 7.12338 18.3651 11.1255 16.9883C11.5393 16.8457 11.9688 16.7109 12.4111 16.5827C12.9432 18.3035 13.6533 20.1214 14.5159 21.979C13.6122 23.8815 12.8734 25.7232 12.326 27.4551ZM13.1679 36.451C12.8812 34.9066 12.943 32.931 13.3758 30.7459C13.4433 30.4048 13.5218 30.0561 13.6099 29.7002C15.4012 30.114 17.3764 30.4172 19.4672 30.6026C20.6558 32.3224 21.8737 33.8712 23.0923 35.2035C22.7283 35.5536 22.3652 35.8845 22.0048 36.1944C18.8616 38.898 15.9468 39.923 14.5839 39.1344C13.9435 38.7639 13.4255 37.8387 13.1679 36.451ZM34.3716 39.1122C33.7306 39.4816 32.6701 39.4682 31.3385 38.9982C29.8567 38.475 28.1751 37.4351 26.4971 35.9689C26.2162 35.7229 25.9415 35.4701 25.6731 35.2106C26.936 33.8559 28.189 32.3091 29.3855 30.6262C31.4813 30.4563 33.4422 30.1745 35.2136 29.7829C35.3321 30.2583 35.4374 30.7368 35.5294 31.218C36.3028 35.29 35.7359 38.326 34.3716 39.1122ZM42.6209 24.5394C41.4271 25.561 39.6856 26.4972 37.5767 27.2177C37.2237 27.3377 36.8677 27.4491 36.5091 27.5517C35.9629 25.7716 35.2428 23.9028 34.375 22.0148C35.2317 20.1545 35.9416 18.315 36.4829 16.5555C36.9835 16.697 37.4799 16.8531 37.9714 17.0237C41.8872 18.3882 44.2351 20.396 44.2351 21.9698C44.2351 22.7096 43.6935 23.6212 42.6209 24.5394ZM34.4003 4.92078C35.7587 5.70666 36.2984 8.83851 35.4855 12.9904C35.3977 13.4368 35.2985 13.8807 35.1883 14.3221C33.3983 13.9167 31.4512 13.614 29.4172 13.4256C28.2312 11.7525 26.9896 10.2172 25.7332 8.86873C25.9501 8.66155 26.1665 8.46125 26.3821 8.26995C29.7541 5.27738 32.9533 4.08364 34.4003 4.92078ZM18.1456 15.4328C17.6918 16.1438 17.2533 16.8646 16.8305 17.5945C16.4009 18.3359 15.9861 19.0859 15.5864 19.8439C15.0394 18.564 14.5749 17.3156 14.2022 16.1217C15.4436 15.8383 16.7656 15.6069 18.1456 15.4328ZM21.893 13.2592C22.7325 12.1414 23.5859 11.111 24.438 10.1883C25.3035 11.1217 26.1642 12.1506 27.0045 13.258C25.3016 13.1784 23.5959 13.1787 21.893 13.2592ZM33.3151 19.8425C32.9256 19.088 32.5186 18.3427 32.0943 17.6071C31.6695 16.8709 31.2275 16.1448 30.7685 15.4293C32.1395 15.6005 33.4554 15.8261 34.6893 16.1021C34.3134 17.3131 33.8531 18.5671 33.3151 19.8425ZM34.7148 28.0016C33.4812 28.27 32.1454 28.4841 30.7291 28.6421C31.1993 27.9131 31.652 27.1729 32.0869 26.4222C32.5131 25.6864 32.9219 24.9406 33.313 24.1855C33.8625 25.4883 34.3329 26.7693 34.7148 28.0016ZM26.989 30.7692C26.1359 31.8928 25.2626 32.9373 24.3869 33.8818C23.5406 32.9503 22.6902 31.9043 21.848 30.7603C22.7057 30.7985 23.5771 30.8182 24.4587 30.8182C25.3167 30.8182 26.161 30.8018 26.989 30.7692ZM14.1165 27.9217C14.5035 26.7102 14.9908 25.4361 15.5688 24.1191C15.9698 24.8918 16.388 25.6554 16.8231 26.4094C17.251 27.1514 17.6937 27.8847 18.1508 28.609C16.7243 28.438 15.3705 28.2077 14.1165 27.9217ZM20.4983 28.8329C19.7706 27.7403 19.0786 26.6244 18.4235 25.487C17.7627 24.3431 17.1427 23.176 16.5651 21.988C17.1487 20.812 17.7705 19.6553 18.4295 18.5196C19.0847 17.387 19.7797 16.2778 20.5132 15.1942C21.799 15.0963 23.1195 15.045 24.4585 15.045C25.7916 15.045 27.1103 15.0959 28.3965 15.1931C29.1375 16.2784 29.837 17.391 30.4935 18.5294C31.1502 19.6675 31.7638 20.83 32.333 22.0142C31.7623 23.1981 31.1468 24.3599 30.4879 25.4971C29.8259 26.6404 29.1209 27.7582 28.3743 28.8482C27.1136 28.9299 25.8044 28.9718 24.4587 28.9718C23.1074 28.9718 21.7814 28.9245 20.4983 28.8329ZM13.5107 13.4818C12.6008 9.06711 13.1641 5.70073 14.6122 4.86588C15.9719 4.08211 18.956 5.17866 22.1489 7.95602C22.4879 8.25166 22.8195 8.55567 23.1434 8.86777C21.9074 10.1989 20.6761 11.7368 19.4877 13.4281C17.4478 13.6194 15.4993 13.9274 13.7052 14.3412C13.6352 14.0559 13.5704 13.7694 13.5107 13.4818Z" fill="white"/>
<path d="M24.4587 18.1099C22.3258 18.1099 20.5969 19.8381 20.5969 21.9698C20.5969 24.1017 22.3258 25.8299 24.4587 25.8299C26.5915 25.8299 28.3206 24.1017 28.3206 21.9698C28.3206 19.8381 26.5915 18.1099 24.4587 18.1099Z" fill="white"/>
</svg>
