<svg width="293" height="293" viewBox="0 0 293 293" fill="none" xmlns="http://www.w3.org/2000/svg">
<path fill-rule="evenodd" clip-rule="evenodd" d="M292.39 159.917C292.797 155.499 293 151.026 293 146.5C293 65.5902 227.41 0 146.5 0C65.5902 0 0 65.5902 0 146.5C0 176.619 9.08872 204.622 24.6778 227.9C26.0346 222.124 28.9469 216.922 33.2343 212.288C41.9471 202.881 52.6204 196.113 63.664 189.869C65.669 188.735 67.716 187.682 69.7624 186.628C70.5108 186.243 71.2591 185.858 72.0053 185.468L72.022 185.46C74.3911 184.219 74.3984 184.215 72.3761 182.592C67.7422 178.869 62.8397 175.515 57.9369 172.16C55.2732 170.337 52.6094 168.515 49.9885 166.633C40.7201 159.984 31.7327 153.024 24.4077 144.186C19.564 138.35 15.8809 131.88 14.1945 124.405C12.8788 118.599 14.29 113.08 16.2512 107.71C20.8436 95.1712 28.9938 85.0713 38.4774 75.9168C49.1925 65.5725 61.4092 57.3141 74.3728 50.103C87.0256 43.059 100.246 37.2648 113.933 32.5471C122.879 29.4677 132.07 27.542 141.475 26.4181C152.287 25.1265 162.99 25.4613 173.586 27.8173C183.1 29.9398 191.967 33.4736 199.113 40.4998C205.122 46.4193 207.897 53.7026 208.166 61.9483C208.585 74.9479 203.837 86.3091 196.339 96.6179C183.793 113.863 166.608 123.927 146.092 128.83C136.997 131.007 127.806 132.191 118.472 132.005C108.935 131.82 99.8518 129.99 92.1857 123.753C89.2379 121.361 86.7206 118.623 85.3752 114.993C85.1663 114.43 85.0043 113.832 84.9328 113.241C84.8372 112.379 84.7594 111.483 85.77 110.992C86.7566 110.514 87.492 110.986 88.0722 111.668C93.1007 117.588 99.8935 120.045 107.243 121.164C113.647 122.138 120.039 121.486 126.407 120.404C137.93 118.449 148.819 114.718 158.912 108.84C171.034 101.778 181.289 92.7608 187.74 80.0302C190.628 74.3316 192.189 68.3217 191.142 61.8162C190.251 56.2612 187.094 52.4762 182.328 49.8569C175.595 46.1555 168.259 44.8462 160.7 44.5532C141.62 43.8178 123.705 48.6912 106.436 56.2554C91.0143 63.0179 76.3826 71.2339 63.0419 81.5788C54.6411 88.0969 47.0231 95.4156 41.8864 104.893C37.5452 112.906 35.5955 121.337 38.2027 130.39C39.7994 135.927 42.9926 140.514 46.8193 144.699C52.2648 150.647 58.6116 155.536 64.959 160.425C66.2439 161.415 67.5288 162.404 68.8063 163.403C69.154 163.674 69.5019 163.946 69.8498 164.217C74.9351 168.181 80.0214 172.146 84.4429 176.887C85.1846 177.682 85.8484 177.844 86.8768 177.27C96.2585 172.097 105.659 166.973 115.064 161.848C115.914 161.388 116.505 160.7 117.091 159.953C122.103 153.531 128.064 148.239 135.479 144.729C138.66 143.222 142.027 142.187 145.584 142.851C150.457 143.761 153.256 147.689 153.555 153.728C153.687 156.437 153.519 159.145 153.137 162.231C155.941 160.145 158.518 160.216 161.107 161.705C162.907 162.745 163.852 164.205 163.29 166.375C162.791 168.298 162.289 170.219 161.786 172.141C160.312 177.781 158.838 183.42 157.459 189.08C157.334 189.597 157.206 190.115 157.077 190.632C156.017 194.912 154.953 199.207 155.193 203.688C155.201 203.846 155.193 204.019 155.184 204.196C155.155 204.812 155.123 205.469 155.774 205.632C156.445 205.802 156.752 205.141 157.02 204.564C157.082 204.431 157.141 204.303 157.202 204.191C161.56 196.256 165.232 187.994 168.905 179.729C169.174 179.125 169.443 178.521 169.712 177.916C171.691 173.464 173.667 169.009 175.642 164.555C178.194 158.797 180.747 153.04 183.309 147.289C184.948 143.605 186.162 139.778 186.939 135.838C187.34 133.823 188.512 132.818 190.306 132.322C194.294 131.203 198.372 131.156 202.462 131.479C203.234 131.539 204.023 131.868 204.729 132.22C206.32 133.016 206.881 134.158 206.206 136C204.203 141.471 202.379 147.002 202.672 152.952C202.965 158.979 204.274 164.726 207.748 169.928C208.674 168.965 209.308 167.811 209.939 166.662C210.135 166.305 210.331 165.949 210.535 165.599C215.33 157.395 220.006 149.131 224.12 140.55C225.479 137.712 226.263 134.73 227.049 131.738C227.229 131.056 227.408 130.373 227.595 129.691C229.287 123.502 229.915 122.952 236.289 122.301C238.741 122.049 241.264 122.025 243.71 122.277C247.071 122.63 248.984 123.999 247.513 127.88C245.671 132.759 244.206 137.734 244.32 143.086C244.458 149.322 246.054 155.057 249.056 160.51C250.246 162.678 250.787 163.74 251.609 164.043C252.409 164.338 253.476 163.911 255.669 163.081C267.808 158.471 280.09 156.911 292.39 159.917ZM291.075 170.286C290.011 170.053 288.934 169.85 287.846 169.67C278.231 168.104 268.664 168.223 259.234 171.07L259.022 171.134C254.922 172.372 254.92 172.373 256.143 176.601C259.318 187.525 256.346 195.353 246.21 202.773C241.558 206.175 236.374 208.453 230.783 209.793C225.419 211.085 221.21 207.844 221.192 202.343C221.174 197.397 222.86 192.889 225.324 188.667C228.487 183.243 232.517 178.508 237.295 174.448C238.682 173.276 239.184 172.385 238.18 170.633C234.52 164.229 232.571 157.215 231.124 150.039C231.073 149.785 230.997 149.536 230.901 149.225C230.851 149.061 230.795 148.879 230.735 148.67C229.793 149.746 229.235 150.929 228.693 152.077C228.486 152.518 228.28 152.953 228.056 153.376C223.506 162.034 218.555 170.447 212.952 178.472C212.372 179.309 212.39 179.955 212.779 180.846C214.542 184.858 215.726 189.062 215.828 193.439C216.05 203.06 211.254 209.817 203.163 214.427C197.154 217.848 190.702 219.935 183.712 220.018C182.45 220.037 181.152 219.959 179.92 219.696C175.92 218.84 174.539 214.984 176.942 211.216C178.989 208.018 181.452 205.141 183.914 202.264C184.674 201.377 185.433 200.489 186.181 199.592C186.715 198.952 187.251 198.313 187.786 197.673C191.031 193.799 194.276 189.926 197.273 185.845C198.301 184.44 198.391 183.429 197.578 181.964C193.787 175.13 191.168 167.859 189.697 160.175C189.629 159.827 189.558 159.478 189.479 159.085C189.383 158.613 189.274 158.076 189.141 157.394C188.718 158.404 188.305 159.386 187.901 160.348C186.78 163.016 185.723 165.532 184.686 168.05C178.066 184.177 170.072 199.622 161.455 214.744C159.446 218.26 156.863 221.501 153.072 223.469C149.478 225.335 145.609 224.318 143.552 220.826C141.842 217.92 141.316 214.673 141.191 211.384C141.065 208.047 141.053 204.699 141.286 201.266C140.905 202.132 140.528 203 140.151 203.867C139.287 205.857 138.423 207.846 137.507 209.811C137.342 210.166 137.177 210.521 137.013 210.876C134.787 215.676 132.568 220.46 129.333 224.737C125.674 229.574 116.662 230.178 112.626 224.88C108.704 219.732 106.641 213.878 105.403 207.659C103.411 197.673 105.235 187.986 107.854 178.377C107.895 178.226 107.948 178.078 108.003 177.926C108.173 177.453 108.356 176.943 108.207 176.201C107.007 176.89 105.815 177.574 104.629 178.254C101.302 180.163 98.024 182.044 94.7529 183.944C94.4688 184.108 94.1583 184.262 93.8454 184.417C92.9471 184.863 92.0295 185.318 91.6615 186.037C91.3185 186.715 91.7604 187.45 92.2156 188.208C92.4666 188.625 92.7216 189.05 92.8512 189.475C94.944 196.268 95.6679 203.157 94.9801 210.272C94.1966 218.345 92.1159 225.999 87.6728 232.762C78.4702 246.766 66.0148 255.233 49.7442 256.5C75.5522 279.223 109.414 293 146.5 293C219.308 293 279.713 239.883 291.074 170.287C291.074 170.287 291.074 170.287 291.075 170.286ZM47.9381 241.163C50.8446 241.39 53.6848 240.978 56.4174 240.009C70.894 234.884 82.5899 219.224 82.0869 203.121C82.2786 200.436 81.7642 197.476 81.1902 194.522C80.7478 192.22 80.7181 192.208 78.7867 193.356C72.4128 197.153 66.1098 201.058 60.2441 205.632C54.2101 210.332 48.2963 215.122 44.7746 222.178C42.8375 226.064 41.5276 230.059 41.7908 234.484C42.0243 238.323 44.3202 240.876 47.9381 241.163ZM138.589 178.448C140.951 172.063 143.169 165.599 144.186 158.812C144.586 156.181 143.409 155.153 140.856 155.803C137.094 156.766 134.254 159.164 132.03 162.112C124.071 172.69 119.24 184.458 119.15 198.857C119.218 199.49 119.26 200.175 119.304 200.897C119.46 203.45 119.643 206.462 121.135 209.231C122.115 211.049 123.371 211.223 124.788 209.734C126.289 208.161 127.263 206.242 128.19 204.31C131.89 196.649 134.825 188.673 137.759 180.702C138.035 179.951 138.312 179.199 138.589 178.448ZM188.441 212.018C193.26 209.579 197.189 206.152 199.916 201.44C201.147 199.318 201.721 197.01 201.763 194.384C201.619 194.446 201.506 194.485 201.419 194.515C201.286 194.561 201.211 194.587 201.171 194.641C196.908 200.316 192.178 205.59 187.388 210.822C187.32 210.898 187.234 210.975 187.145 211.055C186.816 211.349 186.448 211.678 186.797 212.126C187.211 212.662 187.781 212.363 188.264 212.109C188.325 212.078 188.384 212.047 188.441 212.018ZM232.606 201.432C232.736 201.364 232.864 201.296 232.989 201.237C239.477 198.182 243.214 193.284 243.274 185.923C243.25 184.578 243.22 183.257 242.891 181.935C242.574 180.644 242.155 180.536 241.223 181.433C238.909 183.669 236.804 186.067 235.106 188.812C233.085 192.071 231.62 195.569 230.531 199.222C230.298 200.023 229.994 201.07 230.759 201.662C231.331 202.106 231.992 201.756 232.606 201.432Z" fill="#F2F2F2"/>
</svg>
