<svg width="243" height="70" viewBox="0 0 243 70" fill="none" xmlns="http://www.w3.org/2000/svg">
<g filter="url(#filter0_d)">
<path fill-rule="evenodd" clip-rule="evenodd" d="M55.6389 25.8195L29.8195 0L4 25.8195L9.07129 30.8908L4 35.9621L29.8195 61.7816L55.6389 35.9621L50.5676 30.8908L55.6389 25.8195ZM86.668 35.7617C86.668 34.5117 86.2252 33.5482 85.3398 32.8711C84.4674 32.194 82.8854 31.5104 80.5938 30.8203C78.3021 30.1302 76.4791 29.362 75.125 28.5156C72.5338 26.888 71.2383 24.7656 71.2383 22.1484C71.2383 19.8568 72.1693 17.9688 74.0312 16.4844C75.9062 15 78.3346 14.2578 81.3164 14.2578C83.2955 14.2578 85.0599 14.6224 86.6094 15.3516C88.1588 16.0807 89.3763 17.1224 90.2617 18.4766C91.1471 19.8177 91.5898 21.3086 91.5898 22.9492H86.668C86.668 21.4648 86.1992 20.306 85.2617 19.4727C84.3373 18.6263 83.0092 18.2031 81.2773 18.2031C79.6627 18.2031 78.4062 18.5482 77.5078 19.2383C76.6224 19.9284 76.1797 20.8919 76.1797 22.1289C76.1797 23.1706 76.6615 24.043 77.625 24.7461C78.5885 25.4362 80.1771 26.1133 82.3906 26.7773C84.6041 27.4284 86.3815 28.1771 87.7227 29.0234C89.0638 29.8568 90.0469 30.8203 90.6719 31.9141C91.2969 32.9948 91.6094 34.2643 91.6094 35.7227C91.6094 38.0924 90.6979 39.9805 88.875 41.3867C87.0651 42.7799 84.6041 43.4766 81.4922 43.4766C79.4349 43.4766 77.5404 43.099 75.8086 42.3438C74.0898 41.5755 72.7487 40.5208 71.7852 39.1797C70.8346 37.8385 70.3594 36.276 70.3594 34.4922H75.3008C75.3008 36.1068 75.8346 37.3568 76.9023 38.2422C77.9701 39.1276 79.5 39.5703 81.4922 39.5703C83.2109 39.5703 84.5 39.2253 85.3594 38.5352C86.2318 37.832 86.668 36.9076 86.668 35.7617ZM116.492 18.6328H107.625V43.0859H102.723V18.6328H93.9336V14.6484H116.492V18.6328ZM122.801 36.4648L120.496 43.0859H115.359L126.102 14.6484H130.535L141.297 43.0859H136.141L133.816 36.4648H122.801ZM132.43 32.4805L128.309 20.6836L124.188 32.4805H132.43ZM165.809 33.8281C165.522 36.862 164.402 39.2318 162.449 40.9375C160.496 42.6302 157.898 43.4766 154.656 43.4766C152.391 43.4766 150.392 42.9427 148.66 41.875C146.941 40.7943 145.613 39.2643 144.676 37.2852C143.738 35.306 143.25 33.0078 143.211 30.3906V27.7344C143.211 25.0521 143.686 22.6888 144.637 20.6445C145.587 18.6003 146.948 17.0247 148.719 15.918C150.503 14.8112 152.56 14.2578 154.891 14.2578C158.029 14.2578 160.555 15.1107 162.469 16.8164C164.383 18.5221 165.496 20.931 165.809 24.043H160.887C160.652 21.9987 160.053 20.5273 159.09 19.6289C158.139 18.7174 156.74 18.2617 154.891 18.2617C152.742 18.2617 151.089 19.0495 149.93 20.625C148.784 22.1875 148.198 24.4857 148.172 27.5195V30.0391C148.172 33.112 148.719 35.4557 149.812 37.0703C150.919 38.6849 152.534 39.4922 154.656 39.4922C156.596 39.4922 158.055 39.056 159.031 38.1836C160.008 37.3112 160.626 35.8594 160.887 33.8281H165.809ZM178.406 30.8008L175.184 34.2188V43.0859H170.242V14.6484H175.184V27.9883L177.918 24.6094L186.238 14.6484H192.215L181.648 27.2461L192.82 43.0859H186.961L178.406 30.8008ZM212 43.0859H205.164V14.6484H212V43.0859ZM238.504 19.9414H229.969V43.0859H223.113V19.9414H214.734V14.6484H238.504V19.9414Z" fill="white"/>
</g>
<defs>
<filter id="filter0_d" x="0" y="0" width="242.504" height="69.7816" filterUnits="userSpaceOnUse" color-interpolation-filters="sRGB">
<feFlood flood-opacity="0" result="BackgroundImageFix"/>
<feColorMatrix in="SourceAlpha" type="matrix" values="0 0 0 0 0 0 0 0 0 0 0 0 0 0 0 0 0 0 127 0"/>
<feOffset dy="4"/>
<feGaussianBlur stdDeviation="2"/>
<feColorMatrix type="matrix" values="0 0 0 0 0 0 0 0 0 0 0 0 0 0 0 0 0 0 0.1 0"/>
<feBlend mode="normal" in2="BackgroundImageFix" result="effect1_dropShadow"/>
<feBlend mode="normal" in="SourceGraphic" in2="effect1_dropShadow" result="shape"/>
</filter>
</defs>
</svg>
